<svg id="exavW8skHEj1" xmlns="http://www.w3.org/2000/svg" xmlns:xlink="http://www.w3.org/1999/xlink" viewBox="0 0 171 36" shape-rendering="geometricPrecision" text-rendering="geometricPrecision"><g transform="matrix(.189674 0 0 0.189674 30.078183-61.230514)"><path d="M661.050781,463.411072c0,0,.039307.385406-.269653.657287-.51117.491852-.662109.742615-.761902,1.024201c0,0-.006714-.083862-.215759.082062-.403198.723358-.59729,1.280792-.791321,1.838226c0,0-.012146-.012848-.232117.155487-.415649.686371-.611328,1.204346-.807007,1.722321c0,0,.027832.085388-.22229.268432-.401733.506134-.553283.829224-.704834,1.152313-.142273.49823-.284484.99646-.925415,1.754883-.708374.799256-.918029,1.338257-1.127685,1.877258-.000061,0,.020019.052186-.213013.194214-.47876.374451-.652649.651917-.754639.974396c0,0,.001954-.104004-.187072.034424-.421387.622345-.653748,1.106262-.886109,1.590179c0,0-.031433.230622-.537658.259674-1.465393-.799957-3.017151-1.480529-3.269165-2.486633-.676148-2.699859-.722596-5.550293-1.14917-8.320923-2.559571-16.625213-5.208252-33.236816-7.719971-49.869171-1.527039-10.112091-2.861511-20.253265-4.122437-30.680359c12.175904-7.306091,24.166687-14.35672,36.213379-21.310364c19.520996-11.267974,39.061036-22.503326,58.646485-33.658599c2.103332-1.197968,4.560913-1.773987,6.854126-2.63852-.211975,2.009217.199585,4.38089-.726868,5.974762-24.176819,41.590729-48.492371,83.1008-73.228516,124.96399-.632934.563995-.784118.811492-.898132,1.081695c0,0-.016724-.052612-.230041.118836-.404664.713653-.596009,1.255828-.787354,1.798034c0,0,.011658.03241-.232971.211396-.400696.529479-.556824.879974-.712891,1.230499Z" fill="#ea515c"/><path d="M737.80011,327.677979c-2.225769,1.218414-4.68335,1.794433-6.786682,2.992401-19.585449,11.155273-39.125489,22.390625-58.646485,33.658599-12.046692,6.953644-24.037475,14.004273-36.541626,21.312134-.925903.287293-1.363586.273804-1.84082-.076965-3.706665-3.599335-7.254822-7.00766-11.060608-10.098999-20.003784-16.248566-40.072632-32.416992-60.118896-48.61322c2.595398-.965912,5.187805-2.765198,7.78656-2.774231c48.30188-.168213,96.604553-.123383,144.907043-.122925c4.996826.00003,10.031006-.357544,14.974854.155029c2.503845.259583,4.844665,2.092621,7.32666,3.568177Z" fill="#ea515c"/><path d="M634.024109,385.901367c.437622.01355.875305.027039,1.641174.038758c1.749207,10.126312,3.083679,20.267486,4.610718,30.379577c2.511719,16.632355,5.1604,33.243958,7.719971,49.869171.426574,2.77063.473022,5.621064,1.14917,8.320923.252014,1.006104,1.803772,1.686676,3.153808,2.470917-5.073791,2.89154-8.468811,1.184418-9.480469-5.294708-3.973205-25.446991-7.852172-50.908661-11.771606-76.364045-.328735-2.135009-.698242-4.263702-.758423-6.859436c1.438904-1.163116,2.58728-1.862121,3.735657-2.561157Z" fill="#ea515c"/><path d="M633.984497,385.564117c-1.108765,1.036286-2.257141,1.735291-3.753174,2.476227-.347717.041931-.287903-.009582-.391113-.208038-.381592-.404724-.659973-.610993-.938293-.817261c0,0,.086791-.002746-.041077-.193329-.41388-.392639-.69989-.594665-.98584-.796692c0-.00003.11731.002778-.029785-.18872-.660034-.414429-1.172974-.63736-1.685852-.860321-.328736-.143463-.65741-.286927-1.20752-.907624-.49292-.668701-.764465-.860168-1.03601-1.051635c0,0,.072387-.005127-.055481-.199646-.410279-.39502-.69281-.595459-.975281-.795929c0,0,.108032.000946-.03833-.18985-.651367-.413727-1.156311-.636597-1.661316-.859497-.334656-.146515-.669312-.293-1.230591-.913635-.44574-.730317-.712219-.920136-1.026001-1.043549c0,0,.06604-.010498-.06543-.205414-.412964-.392853-.694519-.59082-.976074-.788757c0,0,.105774.001068-.036255-.186463-.632263-.414978-1.122497-.642425-1.612793-.869873-.34552-.155792-.690979-.311554-1.275635-.937774-.458923-.710846-.720275-.891175-1.023132-1.011353c0,0,.058899-.015289-.074035-.21048-.410645-.392639-.688294-.590087-.965943-.787536c0,0,.093811-.001465-.049011-.18985-.627319-.419434-1.111817-.650452-1.596314-.88147c0,0-.194091.033264-.29309-.352569-.731507-.781098-1.364014-1.176423-1.996521-1.571717c0,0,.031311-.025757-.101197-.226379-.408996-.392822-.685547-.584992-.962097-.777191c0,0,.085632-.004395-.040893-.193726-.407593-.394073-.688721-.598816-.969849-.803558c0,.00003.103271.002014-.048157-.192902-.667236-.413177-1.182983-.631439-1.698791-.84967-10.180237-8.033966-20.372071-16.053223-30.534363-24.109833-3.654114-2.896881-7.266113-5.848846-10.842346-8.841339-2.552368-2.135834-3.840821-4.609863-1.242371-7.960541c20.326721,15.981934,40.395569,32.15036,60.399353,48.398926c3.805786,3.091339,7.353943,6.499664,11.060608,10.098968Z" fill="#ea515c"/><path d="M609.069946,371.290039c.527161.126617,1.159668.521942,1.882935,1.204956-.531922-.12027-1.154724-.528259-1.882935-1.204956Z" fill="#ea515c"/><path d="M653.2229,476.645996c-.038574-.393158.193787-.877075.666993-1.494598.028503.378875-.183716.891327-.666993,1.494598Z" fill="#ea515c"/><path d="M658.210571,468.736145c-.04187-.363464.153809-.881439.577149-1.563782.038513.36023-.150513.884766-.577149,1.563782Z" fill="#ea515c"/><path d="M616.355713,377.219788c.372864-.028229.863098.199218,1.49176.666931-.365906.023102-.870117-.194092-1.49176-.666931Z" fill="#ea515c"/><path d="M605.269653,368.241669c.389771-.045502.905518.17276,1.568665.63742-.38263.039704-.912659-.166992-1.568665-.63742Z" fill="#ea515c"/><path d="M662.243958,461.810974c-.05597-.384003.135375-.926178.567199-1.63501.053772.381195-.133056.929016-.567199,1.63501Z" fill="#ea515c"/><path d="M659.265015,466.849915c-.058838-.394501.135254-.951935.580444-1.67627.058228.393188-.134644.953278-.580444,1.67627Z" fill="#ea515c"/><path d="M655.234863,473.781494c-.032409-.376953.177246-.915954.63794-1.610596.0354.37909-.180237.913788-.63794,1.610596Z" fill="#ea515c"/><path d="M626.286621,385.237671c.38562-.038727.89856.184204,1.553345.657074-.380799.03482-.903443-.180298-1.553345-.657074Z" fill="#ea515c"/><path d="M621.305542,381.233459c.384888-.038757.889832.184113,1.537598.651734-.377381.033111-.897461-.178497-1.537598-.651734Z" fill="#ea515c"/><path d="M611.372803,373.197693c.365905-.021027.850403.209991,1.475952.6763-.358399.015411-.85791-.204437-1.475952-.6763Z" fill="#ea515c"/><path d="M607.97644,370.27887c.201416-.068879.477967.123291.882813.535797-.183655.055328-.495667-.10968-.882813-.535797Z" fill="#ea515c"/><path d="M614.03064,375.251709c.211731-.116547.473083.063782.828125.501465-.155518.043243-.446289-.110748-.828125-.501465Z" fill="#ea515c"/><path d="M654.289978,475.048737c-.162842-.259064.011047-.53653.462341-.905915.071167.189514-.063171.515991-.462341.905915Z" fill="#ea515c"/><path d="M612.9729,374.28186c.204285-.067443.481934.130005.886353.552399-.186462.054169-.499756-.116638-.886353-.552399Z" fill="#ea515c"/><path d="M657.279358,470.160034c-.081909-.171722.069641-.494812.428162-.988617.073059.165253-.060791.501251-.428162.988617Z" fill="#ea515c"/><path d="M617.955566,378.291016c.213318-.072632.494873.125335.903565.55133-.193726.058441-.514527-.111175-.903565-.55133Z" fill="#ea515c"/><path d="M660.247192,465.014587c-.128173-.203613.022766-.454376.399903-.806335.21344.216858.097839.503632-.399903.806335Z" fill="#ea515c"/><path d="M661.291443,463.241028c-.084595-.180481.071533-.530976.455139-1.058624.0802.17807-.067139.533325-.455139,1.058624Z" fill="#ea515c"/><path d="M663.228149,459.952576c-.100097-.170472.051087-.417969.395264-.79422.194275.190551.08197.472534-.395264.79422Z" fill="#ea515c"/><path d="M619.02002,379.258179c.222595-.120148.489074.069671.839843.534729-.161743.042175-.455261-.124512-.839843-.534729Z" fill="#ea515c"/><path d="M628.981873,387.279785c.198364-.058472.476745.147797.880127.585449-.18335.047333-.491761-.136657-.880127-.585449Z" fill="#ea515c"/><path d="M606.946411,369.301239c.225281-.075989.506409.128754.913269.565704-.201965.059784-.529724-.11261-.913269-.565704Z" fill="#ea515c"/><path d="M622.948242,382.296692c.2193-.075073.501831.125366.91034.556641-.198365.06015-.522767-.110505-.91034-.556641Z" fill="#ea515c"/><path d="M623.999878,383.268127c.1875-.059936.459045.131531.859253.538544-.172608.048035-.473877-.119537-.859253-.538544Z" fill="#ea515c"/><path d="M627.933716,386.305908c.227234-.078857.513244.123169.925903.559204-.204712.063202-.53595-.107574-.925903-.559204Z" fill="#ea515c"/></g><g transform="matrix(.285564 0 0 0.440168-20.379242-163.027067)"><path d="M74.212158,395.000214c-.001205-5.830994.289025-11.18512-.129722-16.483246-.202858-2.56662-1.735436-5.028168-2.659584-7.519989c6.345626,0,13.884819-.150788,21.41497.045257c6.625595.172516,11.136269,3.723358,13.049225,9.720826c1.692665,5.306854-.125771,12.04779-4.186348,15.518585-4.931572,4.215271-11.154923,4.826355-17.702324,1.291992c1.42897-.240906,2.259346-.427795,3.100075-.51535c8.16925-.850769,12.095016-5.984009,11.115616-14.557892-.728203-6.374939-5.460083-9.621735-13.203789-8.627747-1.201462.154236-3.107987,2.008942-3.12516,3.101807-.209267,13.324127-.267487,26.656036.038314,39.976715.044442,1.935943,2.193512,3.823547,3.352089,5.706543-4.632675,0-9.919128,0-13.910637,0c.924408-2.814118,2.506958-5.695984,2.71666-8.674561.431839-6.133667.130218-12.318969.130615-18.98294Z" fill="#ea515c"/><path d="M246.094818,422.959778c-4.530426.007416-8.661545.007416-11.596863.007416.90683-2.802246,2.510453-5.572388,2.588471-8.384858.303802-10.953491.123825-21.92044.123825-32.752716-9.089447-2.446197-13.783936-1.307647-17.012802,4.077149c0-2.806488,0-5.39386,0-8.25766c13.814407,0,27.472839,0,41.438965,0c0,2.661957,0,5.358215,0,8.737915-3.586029-8.837738-10.523301-4.33075-16.865296-5.678619c0,5.434265-.000183,10.190155.000031,14.946044.00029,6.661103-.196732,13.331635.121383,19.97754.095826,2.001831,1.680207,3.913818,2.437165,5.921844.119217.316223-.537567.924988-1.234879,1.405945Z" fill="#ea515c"/><path d="M483.910278,422.987671c-2.937439-.000183-5.420654-.000183-7.903869-.000183c4.300201-2.410584,3.268615-6.370362,3.280151-9.938568.028931-8.974457.172302-17.953888-.092712-26.920594-.076996-2.60614-1.377838-5.176117-2.131226-7.81015c3.826477,0,8.713196,0,14.946655,0-5.711212,1.790528-5.206787,5.600312-5.185608,9.289612.051575,8.974243-.185699,17.956268.135834,26.919281.101044,2.816986,1.609528,5.583496,2.501007,8.460816-.876251,0-2.986114,0-5.550232-.000214Z" fill="#ea515c"/><path d="M500.770142,415.279694c-2.939759-3.427399-5.387207-6.890412-8.482178-9.618897-3.700897-3.262726-3.100617-5.793793-.115906-9.037537c3.60022-3.912689,6.982056-8.05368,10.141205-12.330169c1.111938-1.505219,1.287262-3.702362,2.054993-6.097504c3.345825,0,7.829315,0,11.381988,0-2.947754,2.650391-6.490753,5.633454-9.793945,8.861878-3.443024,3.365081-6.654755,6.966766-10.430481,10.953857c7.755035,8.058746,13.414184,17.706909,22.048035,24.259033-6.10553,2.044037-11.151185.156311-16.803711-6.990661Z" fill="#ea515c"/><path d="M124.055428,403.146271c.024803,3.659149-.278489,7.359833.177536,10.964416.369262,2.918701,1.652069,5.721802,2.533599,8.588959-3.668037,0-8.55056,0-12.072273,0c.788284-2.677612,2.300865-5.603394,2.40461-8.578369.324501-9.30484.300575-18.634155.000748-27.940735-.08648-2.684326-1.559884-5.323975-2.364144-7.878387c3.467842,0,8.322792,0,13.411286,0-7.047707,5.832946-3.174935,13.450042-3.4404,20.996307-.044716,1.736725-.347839,2.792267-.650962,3.847809Z" fill="#ea515c"/><path d="M402.261597,420.89978c.801422-2.086639,1.678955-3.951996,1.706573-5.829864.141937-9.646088-.044891-19.297333.120606-28.942688.0643-3.747254-.799744-6.534332-4.730347-7.833344c5.367401,0,10.734802,0,16.97934,0-4.871766,1.591828-5.497742,4.827759-5.408478,8.794709.20578,9.144531.052643,18.296875.070678,27.446014.01059,5.370789.149231,5.572815,4.982697,8.274109-5.726593,0-11.144257,0-17.206451,0c1.380066-.737335,2.27478-1.215363,3.485382-1.908936Z" fill="#ea515c"/><path d="M280.001526,379.001831c.488891-.253143.977783-.506256,1.929016-.548767.986176.880218,1.510101,1.549774,1.698975,2.365784-6.182099,1.605255-8.709107,6.202179-10.489869,11.275421-2.339447,6.664825-1.556671,13.293854.918702,20.108887.358245.787567.717895,1.257202,1.036438,1.752929-.041169.026062-.012024-.066894.067504.183686.362031.443847.644501.637115,1.18863.977722c1.066101,1.032653,1.870544,1.917999,2.776764,3.044433.396667.410767.691558.580475.996887.725617.010406-.024567.057708-.049347-.029419.303894-.824799.879822-1.5625,1.406402-2.300171,1.933014-8.285462-2.588318-12.210968-8.918946-13.402191-16.873841-1.279114-8.541809,1.01297-16.17276,8.290039-21.597656c1.55957-1.162659,3.453308-1.877045,5.838562-2.840759.923706-.298676,1.201904-.554535,1.480133-.810364Z" fill="#ea515c"/><path d="M200.395294,378.778687c.361389.027618.722779.055206,1.509003.39804.784027.419098,1.143204.52295,1.50238.626801c14.135056,7.924347,18.61174,20.079346,11.175095,32.372528-2.142822,3.542206-6.466034,5.76535-10.43602,8.691254-1.152634-.576813-1.658875-1.251648-1.86438-2.080018c9.454712-8.48236,11.612106-26.734039-.52887-36.736267-.723175-.53186-1.347396-.732513-2.272216-.960357-.681626-.153229-1.062668-.279267-1.370484-.727143.810654-.742858,1.548081-1.163848,2.285492-1.584838Z" fill="#ea515c"/><path d="M302.761688,381.032227c14.397644,4.317443,16.433045,26.836761,6.932862,33.906555-2.626343,1.954437-5.118622,4.08902-8.430451,6.088592-1.390747-.591766-2.023437-1.131134-2.373779-1.826263c12.12503-9.19281,11.880951-30.673981-1.871094-38.487671.444-.876221.854034-1.407074,1.264069-1.937958c0,0,.36618.009583.71051.35025c1.485504.86261,2.626678,1.384552,3.767883,1.906495Z" fill="#ea515c"/><path d="M439.101929,381.15033c-10.585053,5.232849-13.166626,29.263824-1.228333,37.984619c1.059784.525726,1.628174.662994,2.196564.800262c0,0-.070465-.000702-.098999.329163-1.476166.533508-2.923828.737182-4.37146.940826c0,0-.312592.003723-.602264-.378906-1.294892-.807312-2.30011-1.231934-3.305359-1.656586-9.533753-9.133514-11.888459-17.973388-7.368134-28.862549c2.184723-5.262909,5.803253-9.210357,12.46756-10.329315c1.245178.403046,1.777801.787781,2.310425,1.172486Z" fill="#ea515c"/><path d="M333.957062,398.891632c-.043701,6.083283-.087403,12.166596-.371308,18.918854.341462,1.494232.923096,2.319488,1.504761,3.144775-.00003,0-.086487.015839-.09314.401734-.012207.663726-.017791.941558-.023406,1.219421-2.712281.110535-5.424592.221039-8.559601-.060486-.503052-.838898-.583313-1.285766-.663605-1.732635c0,0,.081055.012787.41922-.125458.828857-2.171631,1.726532-4.201325,1.74469-6.238892.124786-14.000305.065552-28.002258.065552-43.076263c2.134857.907074,4.034454,1.714203,5.934051,2.521301-.029632,6.768677-.059234,13.537384-.329712,20.960297-.024963,1.492462.190979,2.330688.39383,3.393371-.013092.224457-.021332.673981-.021332.673981Z" fill="#ea515c"/><path d="M180.624969,421.209625c-17.717468-8.175781-18.194488-28.519226-5.556823-38.473175c2.259735-1.779877,5.253692-2.627563,8.562561-3.742889.895492.790588,1.137024,1.418365,1.084564,2.217804-8.02919,3.834289-11.57634,14.576538-10.427505,21.739471c1.03305,6.441071,1.833862,13.2948,8.853637,16.790924-.988998.732514-1.752716,1.100189-2.516434,1.467865Z" fill="#ea515c"/><path d="M371.959351,422.819855c-1.702607.038238-3.405213.076477-5.704926-.247406-.735352-.662689-.999481-.965699-.993744-1.263459.224152-11.584259.478424-23.167938.714417-34.752014.055969-2.747894.061371-5.496856.090027-8.24533c1.675842-.046631,3.351684-.093262,5.465545.270141.473541,1.108429.509064,1.806824.544586,2.505249c0,0-.072235-.056366-.265747.057495-.147827.689698-.102142,1.265564-.056457,1.8414.05722,12.025544.114441,24.051117.208282,36.897553.023773,1.526062.010895,2.231201-.001983,2.936371Z" fill="#ea515c"/><path d="M334.388672,373.861511c-2.373993-.804626-4.27359-1.611755-6.408447-2.518829c0,15.074005.059234,29.075958-.065552,43.076263-.018158,2.037567-.915833,4.067261-1.756104,6.278321-.208404-14.599396.067841-29.377961-.094085-44.151703-.02063-1.883942-2.327973-3.742859-3.862946-6.043579c10.103882,0,20.665588,0,31.815552,0c0,2.016845,0,4.700378,0,8.136932-5.273773-8.024658-12.802612-3.636169-19.628418-4.777405Z" fill="#ea515c"/><path d="M153.943878,422.779541c-1.038238.037598-2.076477.075195-3.523727-.390411-.72049-6.804474-1.031967-13.105805-1.343445-19.407105c0,0-.071503-.004913-.052933-.427032-.005585-1.479157-.029724-2.536225-.053863-3.593293.000015,0,.029098.010956.320221-.267639.427215-4.916351.41954-9.565368.781921-14.185363.117645-1.49997,1.203491-2.923981,1.846497-4.382752.701629,1.402741,1.997604,2.799408,2.012085,4.209198.131652,12.813507.039764,25.629273.013244,38.444397Z" fill="#ea515c"/><path d="M154.345795,422.863495c-.375397-12.899078-.283509-25.714844-.415161-38.528351-.014481-1.40979-1.310456-2.806457-2.012085-4.209198-.643006,1.458771-1.728852,2.882782-1.846497,4.382752-.362381,4.619995-.354706,9.269012-.79393,14.194671-.318085-3.701629-.007889-7.727997-.454025-11.668762-.338532-2.990326-1.640107-5.871613-2.497681-8.749451c3.652435,0,8.528061,0,12.145645,0-.75946,2.765991-2.249237,5.884888-2.36615,9.054444-.336776,9.13092-.313797,18.28894-.000366,27.421508.092957,2.708283,1.615952,5.367493,2.528046,8.186341-.443909,0-2.164902,0-4.287796-.083954Z" fill="#ea515c"/><path d="M435.817017,421.513275c1.230316-.511719,2.677978-.715393,4.188964-1.26004c2.187867.016449,4.299805.545746,6.438996.702423c10.751861.787476,16.264007-3.415619,20.812469-15.720459c2.416107,10.304718-.299591,13.954498-10.342346,17.449432-6.791534,2.363556-14.041626,2.335816-21.098083-1.171356Z" fill="#ea515c"/><path d="M439.526672,381.125305c-.957367-.35968-1.48999-.744415-2.36438-1.177063c6.040497-5.070251,13.201233-3.244201,19.966462-1.745849c8.708679,1.928802,9.313842,3.407074,8.34848,14.025451-3.077149-7.156982-7.612854-11.502594-14.691071-11.914917-3.584137-.20874-7.221435.495758-11.259491.812378Z" fill="#ea515c"/><path d="M365.677551,378.213196c.358918,2.846924.353516,5.595886.297547,8.34378-.235993,11.584076-.490265,23.167755-.714417,34.752014-.005737.29776.258392.60077.568543,1.233002-1.477204.331665-3.126343.331665-3.81601.331665.755432-2.96701,2.082214-5.962616,2.184754-8.999573.297943-8.823181.299835-17.669586-.000306-26.492645-.105407-3.098999-1.424133-6.156708-2.197113-9.266662.323517,0,1.806458,0,3.677002.098419Z" fill="#ea515c"/><path d="M148.505768,399.009552c.488281,1.009216.51242,2.066284.54126,3.518188-8.027543.381409-16.0598.367951-24.541832.486512-.146645-.923523.156478-1.979065.448585-3.35788c7.688614-.415161,15.388229-.507049,23.551987-.64682Z" fill="#ea515c"/><path d="M372.425781,422.898743c-.453552-.784058-.440674-1.489197-.42514-2.548096c2.15332-.341064,4.308044-.409637,6.453796-.300751c6.907074.350464,12.866883-1.079834,15.666565-8.718902.355866.257934.711701.515869,1.067566.773803-.965057,2.995606-1.668518,6.118073-3.028778,8.921906-.516754,1.065124-2.524628,1.918884-3.886932,1.97055-5.119263.194214-10.252594.017914-15.847077-.09851Z" fill="#ea515c"/><path d="M298.607971,419.356842c.632691.539398,1.265381,1.078766,2.32013,1.729767-.450592.543793-1.323273.975983-2.600556,1.092712-.690216-.076965-.975799.161499-1.261383.399964-6.396393,2.515808-12.649261,2.020416-19.028931-1.175232.495423-.806214,1.233124-1.332794,2.427674-2.130615c6.292572,2.823242,12.204681,2.108215,18.143066.083404Z" fill="#ea515c"/><path d="M180.759201,421.445984c.629486-.604035,1.393204-.97171,2.762207-1.570068c6.657257,2.086181,12.595062,1.508941,18.459229-.935059.50624.674805,1.012481,1.34964,1.864212,2.097351-5.591919,3.874207-11.998474,3.416443-18.742798,1.586792-.608826-.479156-.969162-.396851-1.329483-.314514-.959717-.209381-1.919434-.418793-3.013367-.864502Z" fill="#ea515c"/><path d="M333.991455,397.993225c-.215912-.838257-.431854-1.676483-.459015-2.696289c5.404114-.18158,10.619446-.18158,16.185822-.18158c0,1.116852,0,3.000611,0,5.237122-1.858368-.567413-3.502991-1.06955-5.837036-1.860474-3.756195-.358764-6.822968-.428772-9.889771-.498779Z" fill="#ea515c"/><path d="M185.009277,381.039734c-.241546-.627808-.483078-1.255585-1.015655-2.081726c5.076202-.375916,10.443435-.553528,16.10617-.455261-.441909.69693-1.179336,1.11792-2.394348,1.872375-4.550445.443848-8.623306.55423-12.696167.664612Z" fill="#ea515c"/><path d="M297.998535,378.506378c-.125275.799988-.535309,1.330841-1.390961,2.184296-4.511413.208954-8.57724.095367-12.643035-.01825-.523896-.669586-1.047821-1.339142-1.751221-2.208679c5.047119-.208801,10.273804-.217621,15.785217.042633Z" fill="#ea515c"/><path d="M149.018738,403.447449c.369446,5.835876.680923,12.137207,1.014618,18.887878-1.6064.521393-3.235016.593414-5.481003.692719c7.506256-5.39679,3.152267-12.820465,4.466385-19.580597Z" fill="#ea515c"/><path d="M372.397766,380.990173c-.358032-.601562-.393555-1.299957-.45224-2.343597c1.365143-.417816,2.753449-.490387,4.141785-.562958.073425.241699.14685.483399.220306.725098-1.195801.694885-2.391571,1.38974-3.909851,2.181457Z" fill="#ea515c"/><path d="M333.978394,398.217651c3.079864-.154419,6.146637-.084411,9.526001.189087-2.66977.299744-5.652131.396027-9.090882.488587-.456451-.003693-.448211-.453217-.435119-.677674Z" fill="#ea515c"/><path d="M325.412506,420.832764c.418549.3974.49881.844268.601837,1.62854-1.36383.337402-2.750335.337402-4.136871.337402-.051453-.218109-.102936-.436249-.154389-.654358c1.117035-.420715,2.234101-.8414,3.689423-1.311584Z" fill="#ea515c"/><path d="M335.242188,422.713684c-.262604-.415131-.25702-.692963-.212281-1.386261c1.095062-.086883,2.150971.241669,3.206879.570221-.005951.228302-.011902.456604-.017822.684906-.902863.089447-1.805695.178925-2.976776.131134Z" fill="#ea515c"/><path d="M302.685516,380.704803c-1.065033-.194519-2.206207-.716461-3.521484-1.511474c1.032379.212616,2.238831.698303,3.521484,1.511474Z" fill="#ea515c"/><path d="M431.856934,419.464722c.840393.129638,1.845611.55426,2.999664,1.293762-.845734-.123016-1.840302-.560913-2.999664-1.293762Z" fill="#ea515c"/><path d="M335.038818,420.628174c-.529968-.4982-1.111602-1.323456-1.502807-2.347046.610687.541077,1.030914,1.280518,1.502807,2.347046Z" fill="#ea515c"/><path d="M439.886139,419.696106c-.384369.101837-.952759-.035431-1.701111-.412293.385712-.101989.951416.035614,1.701111.412293Z" fill="#ea515c"/><path d="M371.860687,382.67337c-.15332-.263275-.199005-.839141-.006042-1.520935.19696.332154.155334.770264.006042,1.520935Z" fill="#ea515c"/><path d="M203.225067,379.589294c-.177566.110383-.536743.006531-1.060058-.331665.18341-.117065.530929.000153,1.060058.331665Z" fill="#ea515c"/><path d="M279.721375,379.044128c.001922.213532-.276276.469391-.849122.740784-.006805-.222443.281067-.46048.849122-.740784Z" fill="#ea515c"/><path d="M297.367035,422.552429c-.015289-.211609.270294-.450073.708221-.471466-.03421.292877-.220764.368714-.708221.471466Z" fill="#ea515c"/><path d="M184.052032,422.425476c.080857-.197327.441193-.279632.842072-.103973-.160507.244995-.361557.231994-.842072.103973Z" fill="#ea515c"/><path d="M274.05835,412.203156c.338134.163513.674774.644927,1.044494,1.426605-.326599-.169403-.686249-.639038-1.044494-1.426605Z" fill="#ea515c"/><path d="M279.127686,418.161926c.190979-.068573.483764.103974.881469.513336-.189911.067139-.484802-.102569-.881469-.513336Z" fill="#ea515c"/><path d="M275.162292,414.139771c.191285-.050049.462067.150451.829926.590698-.185425.046417-.467895-.146851-.829926-.590698Z" fill="#ea515c"/><path d="M201.752502,382.051025c-.457443.067139-1.013839-.19696-1.770935-.697113.423539-.0354,1.04776.165253,1.770935.697113Z" fill="#ea515c"/></g></svg>
