<?xml version="1.0" standalone="no"?>
<!DOCTYPE svg PUBLIC "-//W3C//DTD SVG 20010904//EN"
 "http://www.w3.org/TR/2001/REC-SVG-20010904/DTD/svg10.dtd">
<svg version="1.0" xmlns="http://www.w3.org/2000/svg"
 width="598.000000pt" height="596.000000pt" viewBox="0 0 598.000000 596.000000"
 preserveAspectRatio="xMidYMid meet">

<g transform="translate(0.000000,596.000000) scale(0.100000,-0.100000)"
fill="#000000" stroke="none">
<path d="M101 5932 c-19 -9 -44 -30 -55 -45 l-21 -28 -3 -2867 c-2 -1999 0
-2878 8 -2904 6 -20 24 -48 41 -62 l31 -26 2898 0 2898 0 31 26 c17 14 35 42
41 62 8 26 10 905 8 2904 l-3 2867 -21 28 c-11 15 -36 36 -55 45 -32 17 -191
18 -2899 18 -2708 0 -2867 -1 -2899 -18z m3952 -1270 l117 -117 0 -945 0 -945
-117 -117 -118 -118 -940 0 -940 0 -117 118 -116 117 -7 939 -8 938 124 124
124 124 940 0 940 0 118 -118z m-2543 -2707 c0 -52 2 -95 4 -95 3 0 21 10 41
21 42 25 104 22 137 -8 39 -35 48 -75 48 -223 l0 -140 -55 0 -55 0 0 132 c0
108 -3 135 -17 150 -20 22 -51 23 -81 2 -21 -14 -22 -22 -22 -150 l0 -134 -55
0 -55 0 0 270 0 270 55 0 55 0 0 -95z m2370 -175 l0 -270 -55 0 -55 0 0 270 0
270 55 0 55 0 0 -270z m1070 128 l0 -143 33 40 c75 92 66 86 134 83 l62 -3
-65 -77 -65 -77 70 -105 c39 -58 71 -108 71 -111 0 -3 -27 -5 -59 -5 l-59 0
-42 68 c-24 37 -44 69 -46 71 -2 2 -10 -2 -19 -9 -10 -9 -15 -31 -15 -71 l0
-59 -55 0 -55 0 0 270 0 270 55 0 55 0 0 -142z m-774 107 c15 -23 15 -27 0
-49 -21 -33 -52 -41 -81 -22 -27 18 -34 63 -13 84 22 22 76 15 94 -13z m-665
5 l109 0 0 -45 0 -45 -110 0 -110 0 0 -60 0 -59 98 -3 97 -3 3 -42 3 -43 -100
0 -101 0 0 -105 0 -105 -60 0 -60 0 0 254 0 255 48 4 c26 2 53 2 60 0 8 -2 63
-3 123 -3z m-2360 -23 c56 -30 89 -85 89 -148 0 -98 -79 -159 -207 -159 l-73
0 0 -90 0 -90 -60 0 -60 0 0 255 0 255 133 0 c121 0 138 -2 178 -23z m1397
-59 c3 -46 5 -48 33 -48 27 0 29 -2 29 -40 0 -38 -2 -40 -30 -40 l-31 0 3
-107 3 -108 28 -3 c24 -3 27 -7 27 -43 l0 -39 -60 0 c-51 0 -65 4 -85 25 -24
23 -25 30 -25 150 l0 125 -30 0 c-28 0 -30 2 -30 40 0 38 2 40 30 40 29 0 30
1 30 51 l0 50 53 -3 52 -3 3 -47z m-371 -70 c97 -66 101 -263 5 -333 -20 -15
-47 -21 -102 -23 -65 -3 -79 -1 -109 20 -90 61 -107 220 -32 308 52 62 167 76
238 28z m860 0 c97 -66 101 -263 5 -333 -20 -15 -47 -21 -102 -23 -65 -3 -79
-1 -109 20 -90 61 -107 220 -32 308 52 62 167 76 238 28z m1569 11 c31 -15 48
-32 63 -63 30 -62 28 -66 -33 -66 -49 0 -54 2 -60 24 -7 28 -36 41 -71 32 -27
-7 -45 -50 -45 -112 0 -56 17 -93 47 -101 30 -7 73 11 73 32 0 12 12 15 55 15
62 0 65 -5 34 -60 -32 -57 -70 -73 -158 -68 -69 4 -75 6 -106 40 -71 77 -73
214 -5 292 50 56 134 71 206 35z m-426 -179 l0 -190 -55 0 -55 0 0 190 0 190
55 0 55 0 0 -190z"/>
<path d="M2290 3605 l0 -705 705 0 705 0 0 705 0 705 -705 0 -705 0 0 -705z"/>
<path d="M960 1855 l0 -75 56 0 c64 0 91 12 104 45 11 30 -5 82 -30 95 -10 6
-44 10 -74 10 l-56 0 0 -75z"/>
<path d="M2029 1791 c-21 -17 -24 -28 -24 -91 0 -63 3 -74 24 -91 48 -39 99
-17 111 49 21 115 -41 190 -111 133z"/>
<path d="M2889 1791 c-21 -17 -24 -28 -24 -91 0 -63 3 -74 24 -91 70 -57 132
18 111 133 -12 66 -63 88 -111 49z"/>
</g>
</svg>
