<svg version="1.1" id="Layer_1" xmlns="http://www.w3.org/2000/svg" xmlns:xlink="http://www.w3.org/1999/xlink" x="0px" y="0px"
	 width="100%" viewBox="0 0 1534 962" enable-background="new 0 0 1534 962" xml:space="preserve">
<path fill="#282633" opacity="1.000000" stroke="none" 
	d="
M1.000000,952.000000 
	C1.000000,638.300598 1.000000,324.601196 1.268669,10.248078 
	C4.079221,5.023699 7.899192,2.157695 13.000000,1.000000 
	C516.032715,1.000000 1019.065430,1.000000 1522.913330,1.000509 
	C1527.485596,4.000684 1531.242798,7.000350 1535.000000,10.000009 
	C1535.000000,323.699402 1535.000000,637.398804 1534.753906,951.777954 
	C1530.796265,958.924072 1525.172119,961.082092 1517.816772,961.080750 
	C1018.214783,960.990906 518.612854,960.987000 19.010881,961.111084 
	C11.060875,961.113037 5.098771,958.812073 1.000000,952.000000 
M762.652161,408.762329 
	C756.591858,404.956238 750.655579,400.931213 744.436157,397.405914 
	C738.263245,393.906982 731.203979,395.347229 727.326233,400.359680 
	C723.275024,405.596130 723.508667,412.439850 729.121765,417.446564 
	C743.526306,430.294983 757.815613,443.375610 773.186523,454.993317 
	C780.644287,460.630096 790.282288,463.565491 799.218628,466.976196 
	C802.998474,468.418854 807.431152,467.911041 809.064636,472.922577 
	C809.334351,473.750305 811.202637,474.525696 812.286743,474.468231 
	C813.126404,474.423737 814.275330,473.178253 814.619263,472.225677 
	C815.433716,469.970215 809.989441,462.009064 807.543640,461.936768 
	C794.600708,461.554138 783.573181,455.935425 773.906433,448.201660 
	C760.138062,437.186432 747.140381,425.207001 733.844360,413.604095 
	C732.984741,412.853973 732.232910,411.884399 731.697510,410.875397 
	C729.525452,406.782104 732.143188,401.839539 736.771545,401.885010 
	C739.097351,401.907837 741.656921,402.890717 743.686096,404.133057 
	C753.051819,409.867157 762.205200,415.949310 771.597473,421.637939 
	C773.253479,422.640930 775.684509,422.364380 777.757629,422.678741 
	C777.472839,420.710052 777.714478,418.454193 776.821411,416.817413 
	C768.536255,401.632446 760.056213,386.553864 751.631958,371.444824 
	C746.447876,362.147247 741.018860,352.972107 736.266907,343.458710 
	C735.219604,341.361969 735.709961,337.439484 737.101501,335.531769 
	C738.132385,334.118683 741.911316,333.972656 744.198853,334.476105 
	C745.696533,334.805664 746.964783,337.163513 747.913147,338.850555 
	C757.124023,355.235016 766.245483,371.669678 775.392395,388.090088 
	C775.958984,389.107147 776.284424,390.493622 777.147156,391.056122 
	C778.473267,391.920685 780.168396,392.219360 781.706909,392.758148 
	C781.994934,391.282196 782.625061,389.768341 782.466980,388.341888 
	C782.331238,387.117737 781.302734,385.988770 780.654541,384.825806 
	C768.750732,363.466797 756.843018,342.109924 744.943359,320.748596 
	C744.216492,319.443817 743.481689,318.136261 742.867493,316.777222 
	C741.393677,313.516022 742.370605,310.837006 745.263428,309.026428 
	C748.445740,307.034668 751.373169,307.886414 753.680725,310.665863 
	C754.623047,311.800751 755.223755,313.223541 755.952820,314.530487 
	C768.837463,337.627625 781.722717,360.724457 794.591431,383.830475 
	C795.761047,385.930634 797.094421,388.554260 799.715454,386.701630 
	C800.695435,386.008942 800.617737,382.505829 799.825806,380.859924 
	C797.162170,375.324463 793.936768,370.060913 790.970703,364.668915 
	C788.242493,359.709442 788.682739,356.206848 792.205811,354.234131 
	C795.793884,352.225037 799.373535,353.840576 802.146301,358.784149 
	C805.808044,365.312622 809.376160,371.894501 813.106812,378.383087 
	C814.332275,380.514404 815.257080,384.101624 818.797729,382.056213 
	C821.997681,380.207611 819.688843,377.673645 818.568176,375.591248 
	C816.204224,371.198303 813.596191,366.934418 811.303223,362.506256 
	C809.411499,358.852875 810.116516,355.493164 813.902588,353.612885 
	C817.380798,351.885498 820.484192,353.039062 822.371643,356.455963 
	C830.493164,371.159119 838.931824,385.706970 846.471008,400.705444 
	C851.960999,411.627228 855.653992,423.437256 853.731384,435.872314 
	C852.971924,440.784363 854.390747,444.358429 856.936340,447.803711 
	C857.812378,448.989380 860.088318,449.140656 861.724792,449.764435 
	C861.859131,448.133606 862.288574,446.461517 862.067444,444.880432 
	C861.578857,441.387482 860.636292,437.959564 860.105469,434.470673 
	C858.813721,425.981659 859.475952,416.648743 856.080933,409.132904 
	C847.275757,389.639923 836.948730,370.809814 826.580200,352.074280 
	C825.048828,349.307190 820.025574,347.213898 816.556213,347.121399 
	C812.866272,347.023010 809.102966,349.675476 805.674683,351.008942 
	C802.392395,349.800934 798.741272,347.339508 795.169373,347.449615 
	C791.424377,347.565094 787.755493,350.147614 783.883301,351.721008 
	C783.661438,351.370453 783.086975,350.552948 782.603271,349.684875 
	C774.992065,336.025513 767.456909,322.323303 759.762756,308.710907 
	C756.058105,302.156738 748.669250,299.933289 742.657532,303.266876 
	C736.319763,306.781281 734.372803,313.570526 737.770020,320.454163 
	C738.793213,322.527435 739.927368,324.545959 741.020752,326.608429 
	C727.747131,331.783386 725.724182,337.532104 732.602478,349.917755 
	C743.261841,369.112122 753.896362,388.320312 763.924316,408.201996 
	C763.728638,408.437103 763.532959,408.672241 762.652161,408.762329 
M476.093903,571.140259 
	C475.911407,570.960938 475.728882,570.781616 475.653412,569.842651 
	C481.084412,551.381531 486.515411,532.920410 492.110046,513.903076 
	C483.024261,512.328247 474.355408,510.992004 465.765411,509.263611 
	C461.737976,508.453278 460.031799,509.404785 458.806213,513.592468 
	C445.118408,560.361877 431.188263,607.060303 417.341064,653.783081 
	C416.895874,655.285156 416.639099,656.843079 416.231415,658.655518 
	C427.017761,660.454590 437.275665,662.165466 447.696991,663.903625 
	C452.915344,646.304626 457.767120,629.186890 463.101196,612.220703 
	C466.594574,601.109192 473.736725,592.694641 484.381226,587.700378 
	C488.345001,585.840637 492.869781,584.865234 496.650146,588.124023 
	C500.223145,591.204041 499.303406,595.407776 498.197083,599.304443 
	C494.336304,612.902588 490.370544,626.470825 486.437866,640.048523 
	C483.683167,649.559326 480.917328,659.066772 478.010284,669.079285 
	C488.892456,670.897156 499.151520,672.610901 509.564026,674.350220 
	C510.301880,672.049011 510.891724,670.338989 511.399719,668.605042 
	C516.683472,650.568970 522.033752,632.551758 527.183533,614.477417 
	C528.911072,608.414307 530.679321,602.273254 531.459351,596.046326 
	C533.952637,576.142639 521.675659,562.747253 501.691772,562.963928 
	C492.324707,563.065491 484.259186,566.770569 476.093903,571.140259 
M341.402222,499.822754 
	C325.455414,543.125427 309.508606,586.428162 293.388519,630.201355 
	C304.674225,632.862305 315.138245,635.329529 326.106598,637.915649 
	C332.106781,621.718750 338.011200,605.780334 343.909271,589.859070 
	C351.495270,591.566040 358.268036,593.269470 365.113281,594.600281 
	C400.556610,601.490967 427.084564,585.068481 434.610168,551.679321 
	C438.849121,532.872192 433.286407,518.180359 417.066376,507.765167 
	C411.707367,504.324036 405.491516,501.791718 399.321533,500.123169 
	C384.079468,496.001343 368.638519,492.614532 353.274078,488.946564 
	C350.927246,488.386292 348.562256,487.902069 346.062347,487.351105 
	C344.477814,491.642212 343.099030,495.376221 341.402222,499.822754 
M1163.991699,533.412720 
	C1162.383545,519.310364 1160.775391,505.208069 1159.135132,490.824066 
	C1148.243530,493.463806 1138.299438,495.873901 1128.263550,498.306274 
	C1134.114380,550.494507 1139.886719,601.983765 1145.698608,653.825256 
	C1156.481812,651.249695 1166.300659,648.904541 1176.179199,646.545044 
	C1176.179199,645.150635 1176.268799,644.169678 1176.165894,643.209351 
	C1174.746582,629.967712 1173.230469,616.735840 1171.949707,603.481079 
	C1171.789429,601.821655 1172.660645,598.663452 1173.359253,598.573669 
	C1175.786499,598.261475 1178.429810,598.727295 1180.820923,599.455505 
	C1181.851807,599.769531 1182.504150,601.423645 1183.264160,602.513733 
	C1190.312378,612.622498 1197.148926,622.888794 1204.529907,632.747742 
	C1206.277100,635.081482 1210.096313,637.734558 1212.521240,637.362732 
	C1222.426880,635.844177 1232.161499,633.210388 1242.882690,630.777771 
	C1229.093384,612.213623 1215.965698,594.540100 1203.411987,577.639404 
	C1211.680664,560.291077 1220.143188,542.536011 1228.605713,524.780945 
	C1228.285522,524.419373 1227.965332,524.057800 1227.645264,523.696289 
	C1219.129517,525.722046 1210.636230,527.848938 1202.089844,529.736084 
	C1196.911621,530.879456 1193.656860,533.758240 1191.666504,538.703918 
	C1187.318604,549.507874 1182.590942,560.158264 1178.141602,570.922363 
	C1176.463501,574.981934 1173.863403,577.469360 1168.996460,577.586731 
	C1167.334717,563.074280 1165.688354,548.695740 1163.991699,533.412720 
M872.769287,574.351501 
	C873.311096,563.442322 873.316284,563.546753 884.434448,562.997498 
	C897.912170,562.331665 911.384155,561.527039 924.846375,560.604126 
	C926.354309,560.500732 928.970520,559.364075 929.062988,558.493164 
	C929.913574,550.485962 930.320679,542.431702 930.878113,534.072876 
	C900.441650,535.937805 870.900452,537.747864 840.949707,539.583008 
	C837.792847,590.509155 834.665833,640.953979 831.521362,691.679871 
	C842.496948,691.045532 852.636780,690.581970 862.740906,689.705750 
	C863.880310,689.606934 865.576538,687.253967 865.719360,685.817444 
	C866.394836,679.026428 866.592407,672.188904 867.011780,665.371094 
	C867.725586,653.768616 868.477905,642.168457 869.230591,630.307312 
	C871.169983,630.128113 872.786377,629.937439 874.408325,629.835449 
	C886.712219,629.060669 899.023987,628.389038 911.313660,627.433105 
	C912.871094,627.311951 915.501160,625.863098 915.621460,624.801331 
	C916.496277,617.079346 916.855042,609.298889 917.412903,601.002930 
	C901.697205,601.928528 886.529968,602.821838 870.827026,603.746704 
	C871.481445,593.852844 872.095093,584.574524 872.769287,574.351501 
M793.739990,585.664917 
	C779.354370,580.977478 765.482056,582.275085 752.283813,589.585510 
	C728.108704,602.975952 714.803650,633.158630 720.748474,660.446716 
	C724.052490,675.613342 732.372803,686.527771 747.345398,691.393433 
	C760.400208,695.635925 773.377808,694.625244 785.609436,688.285461 
	C809.268250,676.022888 823.037354,649.847717 820.309082,623.113647 
	C818.553955,605.915039 811.148376,592.721130 793.739990,585.664917 
M629.136597,653.578979 
	C634.535767,644.207947 637.610046,634.110535 638.753357,623.371094 
	C641.122253,601.120300 629.851257,582.662598 609.876160,576.603027 
	C598.864929,573.262817 587.841858,573.716675 577.049255,577.727173 
	C551.318542,587.288452 534.702332,613.866760 535.876282,643.445740 
	C536.873840,668.580811 557.475403,686.061401 582.595825,683.663086 
	C603.170227,681.698914 617.869507,671.057861 629.136597,653.578979 
M663.206482,582.977478 
	C661.067261,583.302429 658.887268,583.468933 656.802795,584.006226 
	C655.333130,584.385010 652.999939,585.020996 652.765564,585.966736 
	C651.690979,590.302795 650.727478,594.796997 650.803894,599.215698 
	C650.830017,600.727722 653.792725,602.724915 655.801819,603.520691 
	C657.950500,604.371582 660.557068,604.066284 663.226257,604.287354 
	C662.945374,606.304565 662.784058,607.781189 662.529663,609.241699 
	C659.502380,626.620300 656.316589,643.972778 653.469543,661.380737 
	C651.177917,675.392639 658.351440,687.420166 670.863281,690.640991 
	C682.834473,693.722595 694.284424,691.778870 705.268005,686.282837 
	C707.947144,684.942322 708.449524,683.441040 707.201782,680.754639 
	C705.521973,677.138184 704.119446,673.384949 702.748352,669.635376 
	C701.466064,666.128723 699.410522,665.243835 695.778320,666.426880 
	C687.910278,668.989441 684.698120,666.231018 685.918091,657.954285 
	C687.228394,649.065613 688.850037,640.221924 690.401672,631.370056 
	C691.883423,622.916138 693.449890,614.476990 695.030090,605.750244 
	C703.278809,606.134583 710.888000,606.489075 718.919250,606.863281 
	C720.204102,599.617615 721.440186,592.646851 722.759827,585.205017 
	C714.613342,584.665161 706.917786,584.155151 698.882629,583.622681 
	C700.692078,573.070007 702.414673,563.023926 704.334839,551.825500 
	C698.061890,551.825500 692.756348,551.945007 687.458984,551.787659 
	C683.229126,551.662048 680.578125,553.379089 679.065796,557.366577 
	C676.587708,563.900024 673.656677,570.268188 671.351440,576.858215 
	C670.046082,580.589844 668.124329,582.858154 663.206482,582.977478 
M1075.673462,606.628296 
	C1075.757446,605.465576 1075.784912,604.295471 1075.934326,603.141235 
	C1077.076904,594.313232 1079.693970,586.130859 1087.287964,580.656311 
	C1093.931152,575.867310 1100.963257,576.766418 1108.175781,579.682434 
	C1111.704346,581.109131 1114.785034,579.382629 1116.763184,576.309937 
	C1119.624512,571.865540 1122.234253,567.259216 1125.003540,562.634644 
	C1123.829712,561.601501 1122.985229,560.816833 1122.098145,560.083801 
	C1106.771362,547.418823 1082.071411,551.847168 1067.782715,563.077026 
	C1043.269409,582.342590 1036.119873,620.103577 1051.938843,647.089050 
	C1057.006226,655.733459 1064.333496,661.852295 1074.158325,664.526367 
	C1096.108398,670.500488 1122.155884,658.283020 1132.135620,637.089172 
	C1129.172363,634.635803 1126.193726,632.002563 1123.039185,629.600281 
	C1119.086670,626.590210 1115.482788,626.820190 1111.781860,630.158936 
	C1109.559326,632.163940 1107.582886,634.463623 1105.246704,636.316833 
	C1095.618530,643.954285 1083.090454,641.105713 1079.137573,629.563965 
	C1076.769043,622.648621 1076.715820,614.940186 1075.673462,606.628296 
M971.601440,676.182373 
	C972.409607,625.962646 973.217834,575.742859 974.033264,525.074646 
	C964.568542,526.084290 955.847595,527.296875 947.085388,527.824219 
	C943.012573,528.069275 942.226807,529.634216 942.177124,533.297607 
	C941.514832,582.083191 940.716858,630.867065 939.957092,679.651367 
	C939.932068,681.257080 939.953857,682.863647 939.953857,684.941223 
	C949.361389,683.933167 958.076904,682.771851 966.830933,682.169189 
	C970.508850,681.915955 972.030334,680.700745 971.601440,676.182373 
M994.924866,583.510681 
	C995.369080,615.091614 995.813354,646.672546 996.265015,678.780518 
	C1005.617859,677.500671 1014.295898,676.065186 1023.031372,675.231323 
	C1026.898071,674.862122 1027.993408,673.600098 1027.911987,669.749756 
	C1027.281738,639.949097 1026.858643,610.144043 1026.397339,580.339905 
	C1026.326172,575.734924 1026.387451,571.127808 1026.387451,566.080994 
	C1019.135986,567.077942 1012.898560,567.919495 1006.666016,568.795776 
	C994.780151,570.467163 994.781311,570.475464 994.924866,583.510681 
M1013.714905,556.708069 
	C1014.950500,556.228638 1016.244690,555.861511 1017.412170,555.251648 
	C1025.272461,551.145508 1029.575684,542.581238 1027.893555,534.511597 
	C1026.360352,527.156372 1018.963318,520.657104 1011.352966,519.978699 
	C1002.722595,519.209412 995.316833,523.725098 991.987915,531.822021 
	C986.032043,546.308105 999.841858,559.872864 1013.714905,556.708069 
M693.933105,273.119324 
	C693.201050,271.515106 692.468994,269.910858 691.736938,268.306641 
	C690.408264,269.686981 688.302429,270.857971 687.865845,272.478638 
	C679.254211,304.443085 677.792847,336.766449 683.472351,369.396637 
	C684.071716,372.840179 684.652283,376.286957 685.431458,380.842285 
	C682.428101,378.558563 680.624451,376.726318 678.441833,375.699310 
	C677.123108,375.078827 675.216309,375.708099 673.573792,375.775818 
	C673.997559,377.344482 673.916443,379.486206 674.933105,380.381958 
	C679.171448,384.116150 683.768005,387.440735 688.176453,390.986115 
	C690.633057,392.961792 692.616638,392.694061 694.521423,390.194855 
	C697.749268,385.959778 701.242371,381.914734 704.258423,377.537903 
	C705.142395,376.255096 704.789612,374.120087 705.003662,372.375671 
	C703.189087,372.843414 700.888428,372.776459 699.662231,373.891327 
	C697.185852,376.142792 695.293213,379.036224 692.544861,382.422607 
	C683.909241,345.353699 684.420349,309.556519 693.933105,273.119324 
M844.946106,419.928375 
	C845.440796,422.981567 845.935486,426.034729 846.430237,429.087921 
	C850.721802,423.083466 844.604553,402.201202 838.770081,400.110046 
	C840.861389,406.661133 842.845093,412.874969 844.946106,419.928375 
z"/>
<path fill="#F3F4F6" opacity="1.000000" stroke="none" 
	d="
M1.000000,952.482971 
	C5.098771,958.812073 11.060875,961.113037 19.010881,961.111084 
	C518.612854,960.987000 1018.214783,960.990906 1517.816772,961.080750 
	C1525.172119,961.082092 1530.796265,958.924072 1534.753906,952.228882 
	C1535.000000,955.665588 1535.000000,959.331116 1535.000000,962.981445 
	C1023.666687,962.981445 512.333313,962.981445 1.000000,962.981445 
	C1.000000,959.630554 1.000000,956.298218 1.000000,952.482971 
z"/>
<path fill="#E3E4E7" opacity="1.000000" stroke="none" 
	d="
M1535.000000,9.508961 
	C1531.242798,7.000350 1527.485596,4.000684 1523.364258,1.000509 
	C1526.905884,1.000000 1530.811890,1.000000 1535.000000,1.000000 
	C1535.000000,3.669138 1535.000000,6.343521 1535.000000,9.508961 
z"/>
<path fill="#E3E4E7" opacity="1.000000" stroke="none" 
	d="
M12.520824,1.000000 
	C7.899192,2.157695 4.079221,5.023699 1.268669,9.797174 
	C1.000000,7.067075 1.000000,4.134151 1.000000,1.000000 
	C4.679128,1.000000 8.360389,1.000000 12.520824,1.000000 
z"/>
<path fill="#EA515C" opacity="1.000000" stroke="none" 
	d="
M341.561218,499.466492 
	C343.099030,495.376221 344.477814,491.642212 346.062347,487.351105 
	C348.562256,487.902069 350.927246,488.386292 353.274078,488.946564 
	C368.638519,492.614532 384.079468,496.001343 399.321533,500.123169 
	C405.491516,501.791718 411.707367,504.324036 417.066376,507.765167 
	C433.286407,518.180359 438.849121,532.872192 434.610168,551.679321 
	C427.084564,585.068481 400.556610,601.490967 365.113281,594.600281 
	C358.268036,593.269470 351.495270,591.566040 343.909271,589.859070 
	C338.011200,605.780334 332.106781,621.718750 326.106598,637.915649 
	C315.138245,635.329529 304.674225,632.862305 293.388519,630.201355 
	C309.508606,586.428162 325.455414,543.125427 341.561218,499.466492 
M395.992065,559.339172 
	C397.584839,555.159180 399.636505,551.090088 400.678772,546.777039 
	C403.162323,536.500122 400.011444,528.203552 391.729034,524.845459 
	C384.916840,522.083496 377.565643,520.650879 370.263580,518.575195 
	C364.310883,534.718628 358.659149,550.045837 352.883087,565.710327 
	C359.367584,567.227844 365.122833,568.908508 370.995636,569.874817 
	C381.078491,571.533813 389.884369,569.402527 395.992065,559.339172 
z"/>
<path fill="#EA515C" opacity="1.000000" stroke="none" 
	d="
M476.603851,571.714111 
	C484.259186,566.770569 492.324707,563.065491 501.691772,562.963928 
	C521.675659,562.747253 533.952637,576.142639 531.459351,596.046326 
	C530.679321,602.273254 528.911072,608.414307 527.183533,614.477417 
	C522.033752,632.551758 516.683472,650.568970 511.399719,668.605042 
	C510.891724,670.338989 510.301880,672.049011 509.564026,674.350220 
	C499.151520,672.610901 488.892456,670.897156 478.010284,669.079285 
	C480.917328,659.066772 483.683167,649.559326 486.437866,640.048523 
	C490.370544,626.470825 494.336304,612.902588 498.197083,599.304443 
	C499.303406,595.407776 500.223145,591.204041 496.650146,588.124023 
	C492.869781,584.865234 488.345001,585.840637 484.381226,587.700378 
	C473.736725,592.694641 466.594574,601.109192 463.101196,612.220703 
	C457.767120,629.186890 452.915344,646.304626 447.696991,663.903625 
	C437.275665,662.165466 427.017761,660.454590 416.231415,658.655518 
	C416.639099,656.843079 416.895874,655.285156 417.341064,653.783081 
	C431.188263,607.060303 445.118408,560.361877 458.806213,513.592468 
	C460.031799,509.404785 461.737976,508.453278 465.765411,509.263611 
	C474.355408,510.992004 483.024261,512.328247 492.110046,513.903076 
	C486.515411,532.920410 481.084412,551.381531 475.450562,570.432678 
	C475.289917,571.493408 475.332092,571.964050 475.374268,572.434753 
	C475.784119,572.194519 476.193970,571.954285 476.603851,571.714111 
z"/>
<path fill="#EA515C" opacity="1.000000" stroke="none" 
	d="
M1164.016846,533.864990 
	C1165.688354,548.695740 1167.334717,563.074280 1168.996460,577.586731 
	C1173.863403,577.469360 1176.463501,574.981934 1178.141602,570.922363 
	C1182.590942,560.158264 1187.318604,549.507874 1191.666504,538.703918 
	C1193.656860,533.758240 1196.911621,530.879456 1202.089844,529.736084 
	C1210.636230,527.848938 1219.129517,525.722046 1227.645264,523.696289 
	C1227.965332,524.057800 1228.285522,524.419373 1228.605713,524.780945 
	C1220.143188,542.536011 1211.680664,560.291077 1203.411987,577.639404 
	C1215.965698,594.540100 1229.093384,612.213623 1242.882690,630.777771 
	C1232.161499,633.210388 1222.426880,635.844177 1212.521240,637.362732 
	C1210.096313,637.734558 1206.277100,635.081482 1204.529907,632.747742 
	C1197.148926,622.888794 1190.312378,612.622498 1183.264160,602.513733 
	C1182.504150,601.423645 1181.851807,599.769531 1180.820923,599.455505 
	C1178.429810,598.727295 1175.786499,598.261475 1173.359253,598.573669 
	C1172.660645,598.663452 1171.789429,601.821655 1171.949707,603.481079 
	C1173.230469,616.735840 1174.746582,629.967712 1176.165894,643.209351 
	C1176.268799,644.169678 1176.179199,645.150635 1176.179199,646.545044 
	C1166.300659,648.904541 1156.481812,651.249695 1145.698608,653.825256 
	C1139.886719,601.983765 1134.114380,550.494507 1128.263550,498.306274 
	C1138.299438,495.873901 1148.243530,493.463806 1159.135132,490.824066 
	C1160.775391,505.208069 1162.383545,519.310364 1164.016846,533.864990 
z"/>
<path fill="#EA515C" opacity="1.000000" stroke="none" 
	d="
M872.739014,574.823853 
	C872.095093,584.574524 871.481445,593.852844 870.827026,603.746704 
	C886.529968,602.821838 901.697205,601.928528 917.412903,601.002930 
	C916.855042,609.298889 916.496277,617.079346 915.621460,624.801331 
	C915.501160,625.863098 912.871094,627.311951 911.313660,627.433105 
	C899.023987,628.389038 886.712219,629.060669 874.408325,629.835449 
	C872.786377,629.937439 871.169983,630.128113 869.230591,630.307312 
	C868.477905,642.168457 867.725586,653.768616 867.011780,665.371094 
	C866.592407,672.188904 866.394836,679.026428 865.719360,685.817444 
	C865.576538,687.253967 863.880310,689.606934 862.740906,689.705750 
	C852.636780,690.581970 842.496948,691.045532 831.521362,691.679871 
	C834.665833,640.953979 837.792847,590.509155 840.949707,539.583008 
	C870.900452,537.747864 900.441650,535.937805 930.878113,534.072876 
	C930.320679,542.431702 929.913574,550.485962 929.062988,558.493164 
	C928.970520,559.364075 926.354309,560.500732 924.846375,560.604126 
	C911.384155,561.527039 897.912170,562.331665 884.434448,562.997498 
	C873.316284,563.546753 873.311096,563.442322 872.739014,574.823853 
z"/>
<path fill="#EA515C" opacity="1.000000" stroke="none" 
	d="
M794.105896,585.796936 
	C811.148376,592.721130 818.553955,605.915039 820.309082,623.113647 
	C823.037354,649.847717 809.268250,676.022888 785.609436,688.285461 
	C773.377808,694.625244 760.400208,695.635925 747.345398,691.393433 
	C732.372803,686.527771 724.052490,675.613342 720.748474,660.446716 
	C714.803650,633.158630 728.108704,602.975952 752.283813,589.585510 
	C765.482056,582.275085 779.354370,580.977478 794.105896,585.796936 
M782.890808,656.248047 
	C788.343201,644.007690 789.563599,631.146118 787.340088,618.135071 
	C785.397461,606.767090 773.887634,602.998047 764.941467,610.410095 
	C762.791382,612.191528 760.638672,614.281311 759.303162,616.682983 
	C751.607666,630.521912 750.114380,645.400940 753.266541,660.679993 
	C754.742981,667.836914 760.447083,670.894287 767.636902,669.672852 
	C775.180847,668.391235 779.302185,663.179443 782.890808,656.248047 
z"/>
<path fill="#EA515C" opacity="1.000000" stroke="none" 
	d="
M628.965515,653.902100 
	C617.869507,671.057861 603.170227,681.698914 582.595825,683.663086 
	C557.475403,686.061401 536.873840,668.580811 535.876282,643.445740 
	C534.702332,613.866760 551.318542,587.288452 577.049255,577.727173 
	C587.841858,573.716675 598.864929,573.262817 609.876160,576.603027 
	C629.851257,582.662598 641.122253,601.120300 638.753357,623.371094 
	C637.610046,634.110535 634.535767,644.207947 628.965515,653.902100 
M575.698486,611.283875 
	C569.396057,623.942810 566.138062,637.120911 568.876099,651.319946 
	C569.814758,656.187378 573.003479,658.727356 577.643372,659.715515 
	C585.330505,661.352722 591.206787,657.909058 595.441162,652.153381 
	C604.942261,639.238770 608.075378,624.379150 606.292114,608.673401 
	C605.380554,600.644714 598.965332,596.818787 591.003479,598.412109 
	C583.901917,599.833191 579.473328,604.652161 575.698486,611.283875 
z"/>
<path fill="#EA515C" opacity="1.000000" stroke="none" 
	d="
M663.626953,582.932495 
	C668.124329,582.858154 670.046082,580.589844 671.351440,576.858215 
	C673.656677,570.268188 676.587708,563.900024 679.065796,557.366577 
	C680.578125,553.379089 683.229126,551.662048 687.458984,551.787659 
	C692.756348,551.945007 698.061890,551.825500 704.334839,551.825500 
	C702.414673,563.023926 700.692078,573.070007 698.882629,583.622681 
	C706.917786,584.155151 714.613342,584.665161 722.759827,585.205017 
	C721.440186,592.646851 720.204102,599.617615 718.919250,606.863281 
	C710.888000,606.489075 703.278809,606.134583 695.030090,605.750244 
	C693.449890,614.476990 691.883423,622.916138 690.401672,631.370056 
	C688.850037,640.221924 687.228394,649.065613 685.918091,657.954285 
	C684.698120,666.231018 687.910278,668.989441 695.778320,666.426880 
	C699.410522,665.243835 701.466064,666.128723 702.748352,669.635376 
	C704.119446,673.384949 705.521973,677.138184 707.201782,680.754639 
	C708.449524,683.441040 707.947144,684.942322 705.268005,686.282837 
	C694.284424,691.778870 682.834473,693.722595 670.863281,690.640991 
	C658.351440,687.420166 651.177917,675.392639 653.469543,661.380737 
	C656.316589,643.972778 659.502380,626.620300 662.529663,609.241699 
	C662.784058,607.781189 662.945374,606.304565 663.226257,604.287354 
	C660.557068,604.066284 657.950500,604.371582 655.801819,603.520691 
	C653.792725,602.724915 650.830017,600.727722 650.803894,599.215698 
	C650.727478,594.796997 651.690979,590.302795 652.765564,585.966736 
	C652.999939,585.020996 655.333130,584.385010 656.802795,584.006226 
	C658.887268,583.468933 661.067261,583.302429 663.626953,582.932495 
z"/>
<path fill="#EA515C" opacity="1.000000" stroke="none" 
	d="
M1075.647705,607.108276 
	C1076.715820,614.940186 1076.769043,622.648621 1079.137573,629.563965 
	C1083.090454,641.105713 1095.618530,643.954285 1105.246704,636.316833 
	C1107.582886,634.463623 1109.559326,632.163940 1111.781860,630.158936 
	C1115.482788,626.820190 1119.086670,626.590210 1123.039185,629.600281 
	C1126.193726,632.002563 1129.172363,634.635803 1132.135620,637.089172 
	C1122.155884,658.283020 1096.108398,670.500488 1074.158325,664.526367 
	C1064.333496,661.852295 1057.006226,655.733459 1051.938843,647.089050 
	C1036.119873,620.103577 1043.269409,582.342590 1067.782715,563.077026 
	C1082.071411,551.847168 1106.771362,547.418823 1122.098145,560.083801 
	C1122.985229,560.816833 1123.829712,561.601501 1125.003540,562.634644 
	C1122.234253,567.259216 1119.624512,571.865540 1116.763184,576.309937 
	C1114.785034,579.382629 1111.704346,581.109131 1108.175781,579.682434 
	C1100.963257,576.766418 1093.931152,575.867310 1087.287964,580.656311 
	C1079.693970,586.130859 1077.076904,594.313232 1075.934326,603.141235 
	C1075.784912,604.295471 1075.757446,605.465576 1075.647705,607.108276 
z"/>
<path fill="#EA515C" opacity="1.000000" stroke="none" 
	d="
M971.591187,676.639038 
	C972.030334,680.700745 970.508850,681.915955 966.830933,682.169189 
	C958.076904,682.771851 949.361389,683.933167 939.953857,684.941223 
	C939.953857,682.863647 939.932068,681.257080 939.957092,679.651367 
	C940.716858,630.867065 941.514832,582.083191 942.177124,533.297607 
	C942.226807,529.634216 943.012573,528.069275 947.085388,527.824219 
	C955.847595,527.296875 964.568542,526.084290 974.033264,525.074646 
	C973.217834,575.742859 972.409607,625.962646 971.591187,676.639038 
z"/>
<path fill="#D5D5D5" opacity="1.000000" stroke="none" 
	d="
M764.541443,407.522614 
	C753.896362,388.320312 743.261841,369.112122 732.602478,349.917755 
	C725.724182,337.532104 727.747131,331.783386 741.020752,326.608429 
	C739.927368,324.545959 738.793213,322.527435 737.770020,320.454163 
	C734.372803,313.570526 736.319763,306.781281 742.657532,303.266876 
	C748.669250,299.933289 756.058105,302.156738 759.762756,308.710907 
	C767.456909,322.323303 774.992065,336.025513 782.603271,349.684875 
	C783.086975,350.552948 783.661438,351.370453 783.883301,351.721008 
	C787.755493,350.147614 791.424377,347.565094 795.169373,347.449615 
	C798.741272,347.339508 802.392395,349.800934 805.674683,351.008942 
	C809.102966,349.675476 812.866272,347.023010 816.556213,347.121399 
	C820.025574,347.213898 825.048828,349.307190 826.580200,352.074280 
	C836.948730,370.809814 847.275757,389.639923 856.080933,409.132904 
	C859.475952,416.648743 858.813721,425.981659 860.105469,434.470673 
	C860.636292,437.959564 861.578857,441.387482 862.067444,444.880432 
	C862.288574,446.461517 861.859131,448.133606 861.724792,449.764435 
	C860.088318,449.140656 857.812378,448.989380 856.936340,447.803711 
	C854.390747,444.358429 852.971924,440.784363 853.731384,435.872314 
	C855.653992,423.437256 851.960999,411.627228 846.471008,400.705444 
	C838.931824,385.706970 830.493164,371.159119 822.371643,356.455963 
	C820.484192,353.039062 817.380798,351.885498 813.902588,353.612885 
	C810.116516,355.493164 809.411499,358.852875 811.303223,362.506256 
	C813.596191,366.934418 816.204224,371.198303 818.568176,375.591248 
	C819.688843,377.673645 821.997681,380.207611 818.797729,382.056213 
	C815.257080,384.101624 814.332275,380.514404 813.106812,378.383087 
	C809.376160,371.894501 805.808044,365.312622 802.146301,358.784149 
	C799.373535,353.840576 795.793884,352.225037 792.205811,354.234131 
	C788.682739,356.206848 788.242493,359.709442 790.970703,364.668915 
	C793.936768,370.060913 797.162170,375.324463 799.825806,380.859924 
	C800.617737,382.505829 800.695435,386.008942 799.715454,386.701630 
	C797.094421,388.554260 795.761047,385.930634 794.591431,383.830475 
	C781.722717,360.724457 768.837463,337.627625 755.952820,314.530487 
	C755.223755,313.223541 754.623047,311.800751 753.680725,310.665863 
	C751.373169,307.886414 748.445740,307.034668 745.263428,309.026428 
	C742.370605,310.837006 741.393677,313.516022 742.867493,316.777222 
	C743.481689,318.136261 744.216492,319.443817 744.943359,320.748596 
	C756.843018,342.109924 768.750732,363.466797 780.654541,384.825806 
	C781.302734,385.988770 782.331238,387.117737 782.466980,388.341888 
	C782.625061,389.768341 781.994934,391.282196 781.706909,392.758179 
	C780.168396,392.219360 778.473267,391.920685 777.147156,391.056122 
	C776.284424,390.493622 775.958984,389.107147 775.392395,388.090088 
	C766.245483,371.669678 757.124023,355.235016 747.913147,338.850555 
	C746.964783,337.163513 745.696533,334.805664 744.198853,334.476105 
	C741.911316,333.972656 738.132385,334.118683 737.101501,335.531769 
	C735.709961,337.439484 735.219604,341.361969 736.266907,343.458710 
	C741.018860,352.972107 746.447876,362.147247 751.631958,371.444824 
	C760.056213,386.553864 768.536255,401.632446 776.821411,416.817413 
	C777.714478,418.454193 777.472839,420.710052 777.757629,422.678741 
	C775.684509,422.364380 773.253479,422.640930 771.597473,421.637939 
	C762.205200,415.949310 753.051819,409.867157 743.686096,404.133057 
	C741.656921,402.890717 739.097351,401.907837 736.771545,401.885010 
	C732.143188,401.839539 729.525452,406.782104 731.697510,410.875397 
	C732.232910,411.884399 732.984741,412.853973 733.844360,413.604095 
	C747.140381,425.207001 760.138062,437.186432 773.906433,448.201660 
	C783.573181,455.935425 794.600708,461.554138 807.543640,461.936768 
	C809.989441,462.009064 815.433716,469.970215 814.619263,472.225677 
	C814.275330,473.178253 813.126404,474.423737 812.286743,474.468231 
	C811.202637,474.525696 809.334351,473.750305 809.064636,472.922577 
	C807.431152,467.911041 802.998474,468.418854 799.218628,466.976196 
	C790.282288,463.565491 780.644287,460.630096 773.186523,454.993317 
	C757.815613,443.375610 743.526306,430.294983 729.121765,417.446564 
	C723.508667,412.439850 723.275024,405.596130 727.326233,400.359680 
	C731.203979,395.347229 738.263245,393.906982 744.436157,397.405914 
	C750.655579,400.931213 756.591858,404.956238 763.229126,409.096191 
	C764.349670,409.474884 764.893250,409.519653 765.436829,409.564453 
	C765.138367,408.883820 764.839905,408.203217 764.541443,407.522614 
z"/>
<path fill="#EA515C" opacity="1.000000" stroke="none" 
	d="
M994.919922,583.013184 
	C994.781311,570.475464 994.780151,570.467163 1006.666016,568.795776 
	C1012.898560,567.919495 1019.135986,567.077942 1026.387451,566.080994 
	C1026.387451,571.127808 1026.326172,575.734924 1026.397339,580.339905 
	C1026.858643,610.144043 1027.281738,639.949097 1027.911987,669.749756 
	C1027.993408,673.600098 1026.898071,674.862122 1023.031372,675.231323 
	C1014.295898,676.065186 1005.617859,677.500671 996.265015,678.780518 
	C995.813354,646.672546 995.369080,615.091614 994.919922,583.013184 
z"/>
<path fill="#EA515C" opacity="1.000000" stroke="none" 
	d="
M1013.304932,556.809692 
	C999.841858,559.872864 986.032043,546.308105 991.987915,531.822021 
	C995.316833,523.725098 1002.722595,519.209412 1011.352966,519.978699 
	C1018.963318,520.657104 1026.360352,527.156372 1027.893555,534.511597 
	C1029.575684,542.581238 1025.272461,551.145508 1017.412170,555.251648 
	C1016.244690,555.861511 1014.950500,556.228638 1013.304932,556.809692 
z"/>
<path fill="#D5D5D5" opacity="1.000000" stroke="none" 
	d="
M693.848022,273.483337 
	C684.420349,309.556519 683.909241,345.353699 692.544861,382.422607 
	C695.293213,379.036224 697.185852,376.142792 699.662231,373.891327 
	C700.888428,372.776459 703.189087,372.843414 705.003662,372.375671 
	C704.789612,374.120087 705.142395,376.255096 704.258423,377.537903 
	C701.242371,381.914734 697.749268,385.959778 694.521423,390.194855 
	C692.616638,392.694061 690.633057,392.961792 688.176453,390.986115 
	C683.768005,387.440735 679.171448,384.116150 674.933105,380.381958 
	C673.916443,379.486206 673.997559,377.344482 673.573792,375.775818 
	C675.216309,375.708099 677.123108,375.078827 678.441833,375.699310 
	C680.624451,376.726318 682.428101,378.558563 685.431458,380.842285 
	C684.652283,376.286957 684.071716,372.840179 683.472351,369.396637 
	C677.792847,336.766449 679.254211,304.443085 687.865845,272.478638 
	C688.302429,270.857971 690.408264,269.686981 691.736938,268.306641 
	C692.468994,269.910858 693.201050,271.515106 693.848022,273.483337 
z"/>
<path fill="#CDCDCE" opacity="1.000000" stroke="none" 
	d="
M844.887451,419.508575 
	C842.845093,412.874969 840.861389,406.661133 838.770081,400.110046 
	C844.604553,402.201202 850.721802,423.083466 846.430237,429.087921 
	C845.935486,426.034729 845.440796,422.981567 844.887451,419.508575 
z"/>
<path fill="#2A2633" opacity="1.000000" stroke="none" 
	d="
M395.817993,559.664429 
	C389.884369,569.402527 381.078491,571.533813 370.995636,569.874817 
	C365.122833,568.908508 359.367584,567.227844 352.883087,565.710327 
	C358.659149,550.045837 364.310883,534.718628 370.263580,518.575195 
	C377.565643,520.650879 384.916840,522.083496 391.729034,524.845459 
	C400.011444,528.203552 403.162323,536.500122 400.678772,546.777039 
	C399.636505,551.090088 397.584839,555.159180 395.817993,559.664429 
z"/>
<path fill="#282633" opacity="1.000000" stroke="none" 
	d="
M476.348877,571.427185 
	C476.193970,571.954285 475.784119,572.194519 475.374268,572.434753 
	C475.332092,571.964050 475.289917,571.493408 475.397034,570.812500 
	C475.728882,570.781616 475.911407,570.960938 476.348877,571.427185 
z"/>
<path fill="#2A2633" opacity="1.000000" stroke="none" 
	d="
M782.728577,656.587158 
	C779.302185,663.179443 775.180847,668.391235 767.636902,669.672852 
	C760.447083,670.894287 754.742981,667.836914 753.266541,660.679993 
	C750.114380,645.400940 751.607666,630.521912 759.303162,616.682983 
	C760.638672,614.281311 762.791382,612.191528 764.941467,610.410095 
	C773.887634,602.998047 785.397461,606.767090 787.340088,618.135071 
	C789.563599,631.146118 788.343201,644.007690 782.728577,656.587158 
z"/>
<path fill="#2A2633" opacity="1.000000" stroke="none" 
	d="
M575.871216,610.958618 
	C579.473328,604.652161 583.901917,599.833191 591.003479,598.412109 
	C598.965332,596.818787 605.380554,600.644714 606.292114,608.673401 
	C608.075378,624.379150 604.942261,639.238770 595.441162,652.153381 
	C591.206787,657.909058 585.330505,661.352722 577.643372,659.715515 
	C573.003479,658.727356 569.814758,656.187378 568.876099,651.319946 
	C566.138062,637.120911 569.396057,623.942810 575.871216,610.958618 
z"/>
<path fill="#282633" opacity="1.000000" stroke="none" 
	d="
M764.232910,407.862305 
	C764.839905,408.203217 765.138367,408.883820 765.436829,409.564453 
	C764.893250,409.519653 764.349670,409.474884 763.571655,409.168762 
	C763.532959,408.672241 763.728638,408.437103 764.232910,407.862305 
z"/>
</svg>