<svg id="euZsYAXIjQy1" xmlns="http://www.w3.org/2000/svg" xmlns:xlink="http://www.w3.org/1999/xlink" viewBox="0 0 1534 962" shape-rendering="geometricPrecision" text-rendering="geometricPrecision"><g transform="matrix(.993246 0 0 1.015197 25.603182-4.582558)"><path d="M1,940.582664c0-309.933249,0-619.866498.274488-930.445615C4.145908,4.975392,8.048609,2.143796,13.259887,1c513.927013,0,1027.854027,0,1542.61388.000503c4.671289,2.964156,8.509861,5.927809,12.348434,8.891455c0,309.93324,0,619.866489-.251424,930.471326-4.043352,7.060324-9.789302,9.192436-17.303945,9.19111-510.421988-.088765-1020.843914-.092625-1531.265885.02997-8.122181.001929-14.213408-2.27141-18.400947-9.0017M779.147442,403.866893c-6.191552-3.760396-12.256395-7.737099-18.610512-11.220074-6.3066-3.456925-13.518751-2.033969-17.480478,2.918304-4.138947,5.173583-3.900244,11.93514,1.834418,16.881746c14.716504,12.694165,29.315278,25.617751,45.019079,37.095981c7.619279,5.569106,17.466012,8.46926,26.595889,11.839017c3.861707,1.425338,8.390384.923622,10.059245,5.874991.275556.817791,2.184304,1.583873,3.291889,1.527098.857846-.04396,2.031654-1.274491,2.383036-2.215631.832092-2.228384-4.730091-10.093957-7.228862-10.165385-13.22324-.378036-24.489592-5.929293-34.365696-13.570209-14.066555-10.882984-27.34573-22.718594-40.929706-34.1822-.878236-.741117-1.64635-1.69905-2.193345-2.695939-2.219099-4.04415.45533-8.927377,5.183924-8.882452c2.376177.022553,4.99118.993633,7.064301,2.221058c9.568559,5.665259,18.920177,11.674392,28.515861,17.294725c1.69187.99095,4.17555.71772,6.293568,1.028307-.290958-1.945054-.044086-4.17383-.956494-5.790959-8.46459-15.002662-17.128286-29.900217-25.734987-44.827863-5.296355-9.185954-10.842948-18.250941-15.697816-27.650124-1.069984-2.071568-.569008-5.946962.852669-7.831773c1.05321-1.396121,4.913983-1.540395,7.251061-1.04299c1.530116.325602,2.825833,2.655144,3.794736,4.321932c9.410358,16.187755,18.729363,32.425109,28.074372,48.648382.57886,1.004849.911348,2.374678,1.792765,2.930425c1.35483.854183,3.086671,1.149273,4.658504,1.681592.294263-1.458232.938037-2.953913.776532-4.36324-.138682-1.209454-1.18946-2.324867-1.851691-3.473869-12.161613-21.102581-24.327215-42.203052-36.484588-63.307924-.742609-1.289115-1.493325-2.580973-2.120823-3.923696-1.505735-3.222047-.507649-5.8689,2.447824-7.65774c3.251232-1.967848,6.242061-1.126328,8.599593,1.619752.96273,1.121263,1.576447,2.526972,2.321302,3.818227c13.163689,22.819843,26.328002,45.639383,39.475416,68.467999c1.194947,2.074946,2.557198,4.667073,5.234996,2.836685c1.001204-.684372.921824-4.145428.112741-5.771573-2.721323-5.469004-6.016578-10.669362-9.04688-15.996626-2.787295-4.899931-2.337515-8.360474,1.261857-10.309508c3.665781-1.984973,7.322958-.38883,10.155774,4.495393c3.741046,6.450094,7.386438,12.952954,11.197885,19.36364c1.252003,2.10573,2.196837,5.649883,5.814167,3.629028c3.269254-1.826408.910413-4.329952-.234525-6.387349-2.415148-4.340205-5.079664-8.552899-7.422291-12.927899-1.932694-3.609519-1.212408-6.928895,2.65566-8.7866c3.553538-1.706649,6.724143-.566934,8.652471,2.808945c8.297411,14.526636,16.918829,28.899831,24.621291,43.718239c5.608889,10.790661,9.381862,22.458903,7.417615,34.74467-.775907,4.853077.673643,8.384234,3.274367,11.788153.89501,1.171435,3.220241,1.320895,4.892156,1.937185.137249-1.61125.575992-3.263265.350073-4.825368-.499168-3.451015-1.462146-6.837779-2.004466-10.284783-1.319723-8.387099-.64315-17.607967-4.111696-25.033574-8.995872-19.258956-19.546554-37.862998-30.139637-56.3736-1.564538-2.73387-6.696581-4.80203-10.241079-4.893419-3.769855-.097208-7.614664,2.523414-11.117194,3.840871-3.353373-1.193505-7.08357-3.62538-10.732826-3.516595-3.826102.114092-7.574444,2.665608-11.530497,4.220112-.226668-.346346-.813572-1.154037-1.307752-2.011688-7.776044-13.495373-15.47439-27.03308-23.335177-40.48205-3.784884-6.475483-11.333761-8.672238-17.475676-5.378673-6.475028,3.472213-8.464154,10.179949-4.993362,16.980944c1.045352,2.048381,2.20407,4.042671,3.321133,6.08038-13.56109,5.112828-15.627851,10.792529-8.60059,23.029483c10.890215,18.963927,21.755051,37.941511,32.000182,57.584503-.199915.232285-.399832.4646-1.299706.553606M486.383124,564.295377c-.186448-.177168-.372926-.354337-.450031-1.28203c5.548621-18.239483,11.09724-36.478967,16.813039-55.267986-9.282558-1.555922-18.139154-2.876123-26.915187-4.583765-4.114658-.800605-5.857786.139479-7.109915,4.276886-13.984245,46.207914-28.216078,92.345697-42.363169,138.507539-.454832,1.484042-.717168,3.023261-1.133681,4.813941c11.019948,1.777473,21.50001,3.467809,32.147033,5.1851c5.331369-17.387712,10.288221-34.299939,15.737818-51.062437c3.569035-10.978111,10.865865-19.29164,21.740897-24.225944c4.049619-1.837413,8.672393-2.801106,12.53463.418559c3.650381,3.043041,2.710723,7.196307,1.58044,11.046193-3.944393,13.434891-7.99604,26.840233-12.013889,40.254922-2.814358,9.39662-5.640098,18.789923-8.6101,28.68223c11.117849,1.796046,21.599096,3.489217,32.237108,5.207654.753834-2.273581,1.356453-3.963074,1.875449-5.676203c5.398185-17.819538,10.864337-35.620443,16.125648-53.47779c1.764953-5.990319,3.571497-12.057645,4.368421-18.209815c2.547283-19.664731-9.99558-32.899297-30.412263-32.685223-9.56993.100343-17.810127,3.76094-26.152248,8.078169M348.774393,493.834082c-16.292171,42.782798-32.584343,85.565657-49.053547,128.813326c11.530124,2.629004,22.220765,5.066607,33.426663,7.621679c6.13013-16.002445,12.162422-31.74951,18.188229-47.47963c7.750291,1.686477,14.669736,3.369456,21.66323,4.68429c36.210934,6.807959,63.31341-9.417365,71.001998-42.405668c4.330757-18.581338-1.35243-33.096786-17.923742-43.386938-5.47507-3.399818-11.82554-5.901734-18.129147-7.550251-15.572166-4.072341-31.347524-7.418491-47.044716-11.042423-2.397658-.553545-4.813867-1.031955-7.367917-1.576304-1.61885,4.239589-3.027494,7.928769-4.761051,12.321919m840.404492,33.186698c-1.642982-13.933049-3.285964-27.866037-4.961746-42.077351-11.127484,2.608048-21.286938,4.989208-31.540176,7.392379c5.977543,51.561682,11.874895,102.43278,17.812654,153.651882c11.016738-2.54464,21.048234-4.861639,31.140716-7.192809c0-1.377668.09154-2.346848-.013593-3.295646-1.450051-13.082665-2.998998-26.15568-4.307498-39.25131-.163749-1.639501.726335-4.759788,1.440073-4.848493c2.479813-.308446,5.180371.151782,7.623269.871249c1.05321.310256,1.719681,1.944511,2.496151,3.021512c7.200863,9.987403,14.185471,20.130446,21.726304,29.871031c1.785032,2.305722,5.686959,4.926947,8.164403,4.559585c10.120169-1.500324,20.065613-4.102493,31.018995-6.505905-14.087944-18.341274-27.499939-35.802616-40.325529-52.500408c8.447754-17.14005,17.093552-34.681956,25.739352-52.223861-.327125-.357231-.65425-.714464-.981249-1.071634-8.700175,2.001436-17.377403,4.102794-26.10888,5.967283-5.290369,1.129645-8.615619,3.973868-10.649081,8.86017-4.442063,10.674248-9.272113,21.196773-13.817814,31.831643-1.714444,4.010833-4.370853,6.468396-9.3432,6.584358-1.697732-14.33822-3.379751-28.544137-5.113151-43.643675M891.649401,567.468066c.553543-10.778208.558843-10.675031,11.917796-11.217691c13.769612-.65784,27.533363-1.452806,41.287138-2.364638c1.540591-.102153,4.213462-1.225164,4.307933-2.085619.869007-7.911071,1.284929-15.868634,1.854435-24.127108-31.095632,1.84254-61.276611,3.630868-91.876006,5.44398-3.225229,50.314747-6.419966,100.15395-9.632537,150.270847c11.213286-.626723,21.572719-1.08472,31.895673-1.95042c1.16408-.09763,2.897044-2.422348,3.042959-3.841625.690105-6.709486.891955-13.464921,1.32041-20.200879.729265-11.463183,1.497877-22.924075,2.266864-34.64282c1.981394-.177047,3.632795-.365432,5.28987-.466198c12.570362-.765478,25.148769-1.429046,37.704602-2.373502c1.591164-.1197,4.27819-1.551158,4.401095-2.600178.893763-7.629278,1.260298-15.316326,1.830241-23.512687-16.056057.914486-31.551774,1.797071-47.594798,2.710833.668592-9.775078,1.29553-18.942006,1.984325-29.042295m-80.740853,11.177591c-14.697173-4.631163-28.869923-3.349135-42.354004,3.873524-24.698675,13.229682-38.291879,43.049998-32.218307,70.010474c3.375572,14.984542,11.87608,25.767936,27.17294,30.575183c13.337541,4.191558,26.5962,3.193011,39.092731-3.070659c24.171199-12.115353,38.238503-37.976275,35.451145-64.389386-1.793139-16.992129-9.359102-30.027637-27.144505-36.999136M642.7403,645.74437c5.516101-9.258527,8.65696-19.234714,9.825032-29.845221c2.4202-21.98366-9.094895-40.219766-29.502597-46.206588-11.249704-3.300109-22.511504-2.8517-33.537845,1.11065-26.287969,9.44649-43.26404,35.705709-42.064666,64.929575c1.019163,24.833309,22.066898,42.104034,47.731359,39.734512c21.019987-1.94059,36.037613-12.453891,47.548717-29.722928m34.807744-69.753887c-2.18555.32105-4.412756.485555-6.542373,1.016397-1.501494.374236-3.885215,1.002587-4.124666,1.936973-1.097858,4.284002-2.082225,8.724248-2.004154,13.0899.026688,1.493871,3.05356,3.467087,5.106166,4.253309c2.195215.840675,4.858234.539043,7.585231.757459-.286966,1.992993-.451776,3.451889-.711681,4.894865-3.092845,17.16996-6.347632,34.314111-9.256337,51.513077-2.341256,13.84368,4.987626,25.726809,17.770439,28.908966c12.230454,3.044608,23.92838,1.124219,35.149835-4.305831c2.737162-1.324422,3.250422-2.80768,1.975657-5.461829-1.716189-3.573037-3.149091-7.281212-4.549879-10.985769-1.310059-3.464554-3.410118-4.338818-7.120984-3.169976-8.038442,2.531796-11.320166-.193511-10.073774-8.370877c1.338681-8.781958,2.995444-17.519473,4.580683-26.265069c1.513842-8.352423,3.114234-16.690254,4.728657-25.31223c8.427363.379725,16.201348.729961,24.406533,1.099674c1.312678-7.158677,2.575533-14.045753,3.923753-21.398243-8.322915-.533375-16.185136-1.037262-24.394312-1.563339c1.848637-10.425983,3.608539-20.351455,5.57029-31.415437-6.408804,0-11.829249.118073-17.241339-.037386-4.321465-.124103-7.02988,1.572323-8.574962,5.511939-2.531756,6.455009-5.526265,12.74672-7.881427,19.257629-1.333629,3.686829-3.297002,5.927906-8.321356,6.045798m421.399875,23.366875c.085803-1.148761.113864-2.304818.266514-3.445196c1.167323-8.722018,3.841068-16.806157,11.599526-22.214979c6.787062-4.731506,13.971462-3.843193,21.34019-.962185c3.604984,1.409568,6.752391-.296206,8.773382-3.332008c2.923297-4.39104,5.589557-8.942062,8.41882-13.511113-1.19925-1.02074-2.062022-1.795987-2.968318-2.520219-15.658719-12.512927-40.893603-8.137747-55.491752,2.95729-25.044197,19.034269-32.348572,56.341912-16.187007,83.003408c5.177129,8.540628,12.663087,14.586003,22.700695,17.227971c22.425451,5.902399,49.037053-6.168391,59.232923-27.107794-3.027433-2.423915-6.070579-5.025541-9.293439-7.398982-4.038115-2.973934-7.720048-2.746715-11.501127.551948-2.270668,1.980932-4.289913,4.253006-6.67669,6.083967-9.836694,7.54576-22.636093,4.731387-26.674583-6.671796-2.419825-6.832321-2.474201-14.448211-3.539134-22.660312M992.621985,668.076396c.82567-49.616808,1.651401-99.233676,2.484491-149.293586-9.669702.997522-18.579521,2.195549-27.531493,2.716562-4.161021.242114-4.963804,1.788267-5.014563,5.407677-.676636,48.199883-1.491892,96.398077-2.268112,144.596694-.025566,1.586435-.003305,3.173714-.003305,5.226348c9.611273-.995954,18.515542-2.143328,27.459159-2.738754c3.757571-.250194,5.312006-1.450815,4.873823-5.914941m23.828547-91.559112c.453834,31.201785.90773,62.403569,1.369173,94.126065c9.555401-1.264482,18.421382-2.682733,27.346042-3.506585c3.950441-.364769,5.0695-1.611641,4.986316-5.415757-.643899-29.442884-1.076157-58.89011-1.547451-88.336432-.072709-4.549695-.010102-9.1015-.010102-14.087724-7.408512.984979-13.781023,1.816429-20.148547,2.68219-12.14328,1.651321-12.142095,1.659522-11.995431,14.538243m19.196979-26.48083c1.262355-.473675,2.584573-.836395,3.777338-1.438936c8.030523-4.056843,12.426942-12.518294,10.708383-20.491054-1.566408-7.266921-9.123642-13.688161-16.898813-14.358421-8.817281-.760052-16.383431,3.701421-19.784444,11.701135-6.08486,14.31217,8.024037,27.714076,22.197536,24.587276M708.940121,269.852365c-.747909-1.584958-1.495819-3.169946-2.24373-4.754904-1.357449,1.363769-3.508891,2.5207-3.95493,4.12191-8.798138,31.580694-10.291151,63.515997-4.488645,95.754439.612346,3.4022,1.205486,6.807598,2.001536,11.308236-3.068401-2.256304-4.911113-4.066552-7.141001-5.08123-1.347285-.613034-3.29538.008683-4.973469.075589.432944,1.549832.350072,3.665843,1.388752,4.550841c4.330133,3.689361,9.026239,6.974032,13.530162,10.476847c2.509807,1.951958,4.536347,1.687441,6.482385-.78176c3.297751-4.184232,6.866505-8.180713,9.947876-12.504998.903116-1.267406.542693-3.376783.761379-5.100256-1.853874.462128-4.204359.395976-5.457112,1.49746-2.53001,2.224435-4.463639,5.083129-7.271512,8.428857-8.822644-36.623874-8.300467-71.991287,1.418309-107.991031M863.223646,414.898884c.505404,3.016536,1.010808,6.033043,1.516274,9.04958c4.384508-5.932368-1.865224-26.563928-7.826054-28.629978c2.1366,6.472437,4.163265,12.611672,6.30978,19.580398Z" transform="matrix(1.003184 0 0 1.004743-36.884374-.004825)" fill="#282633"/></g><path d="M341.561218,499.466492c1.537812-4.090271,2.916596-7.82428,4.501129-12.115387c2.499909.550964,4.864899,1.035187,7.211731,1.595459c15.364441,3.667968,30.80539,7.054779,46.047455,11.176605c6.169983,1.668549,12.385834,4.200867,17.744843,7.641998c16.220031,10.415192,21.782745,25.107025,17.543792,43.914154-7.525604,33.38916-34.053558,49.811646-69.496887,42.92096-6.845245-1.330811-13.618011-3.034241-21.20401-4.741211-5.898071,15.921264-11.80249,31.85968-17.802673,48.056579-10.968353-2.58612-21.432373-5.053344-32.718079-7.714294c16.120087-43.773193,32.066895-87.075928,48.172699-130.734863m54.430847,59.87268c1.592774-4.179992,3.64444-8.249084,4.686707-12.562133c2.483551-10.276917-.667328-18.573487-8.949738-21.93158-6.812194-2.761963-14.163391-4.19458-21.465454-6.270264-5.952697,16.143433-11.604431,31.470642-17.380493,47.135132c6.484497,1.517517,12.239746,3.198181,18.112549,4.16449c10.082855,1.658996,18.888733-.47229,24.996429-10.535645Z" fill="#776bff"/><path d="M476.603851,571.714111c7.655335-4.943542,15.720856-8.64862,25.087921-8.750183c19.983887-.216675,32.260865,13.178711,29.767579,33.082398-.78003,6.226928-2.548279,12.367981-4.275818,18.431091-5.149781,18.074341-10.500061,36.091553-15.783814,54.127625-.507995,1.733947-1.097839,3.443969-1.835693,5.745178-10.412506-1.739319-20.67157-3.453064-31.553742-5.270935c2.907044-10.012513,5.672883-19.519959,8.427582-29.030762c3.932678-13.577698,7.898438-27.145935,11.759217-40.74408c1.106323-3.896667,2.026062-8.100402-1.546937-11.18042-3.780365-3.258789-8.305145-2.283386-12.26892-.423645-10.644501,4.994263-17.786652,13.408814-21.28003,24.520325-5.334076,16.966187-10.185852,34.083923-15.404205,51.682922-10.421326-1.738159-20.67923-3.449035-31.465576-5.248107.407684-1.812439.664459-3.370362,1.109649-4.872437c13.847199-46.722778,27.777344-93.421204,41.465149-140.190613c1.225586-4.187683,2.931763-5.13919,6.959198-4.328857c8.589997,1.728393,17.25885,3.064636,26.344635,4.639465-5.594635,19.017334-11.025634,37.478455-16.659484,56.529602-.160645,1.06073-.11847,1.531372-.076294,2.002075.409851-.240234.819702-.480468,1.229583-.720642Z" fill="#776bff"/><path d="M1164.016846,533.86499c1.671508,14.83075,3.317871,29.20929,4.979614,43.721741c4.866943-.117371,7.467041-2.604797,9.145142-6.664368c4.44934-10.764099,9.177002-21.414489,13.524902-32.218445c1.990356-4.945678,5.245117-7.824462,10.42334-8.967834c8.546386-1.887146,17.039673-4.014038,25.55542-6.039795.320068.361511.640258.723084.960449,1.084656-8.462525,17.755066-16.925049,35.510132-25.193726,52.858459c12.553711,16.900696,25.681397,34.574219,39.470703,53.138367-10.721191,2.432617-20.45581,5.066406-30.36145,6.584961-2.424927.371826-6.24414-2.28125-7.991333-4.61499-7.380981-9.858948-14.217529-20.125244-21.265747-30.234009-.76001-1.090088-1.412353-2.744202-2.443237-3.058228-2.391113-.72821-5.034424-1.19403-7.46167-.881836-.698608.089783-1.569824,3.247986-1.409546,4.90741c1.280762,13.254761,2.796875,26.486633,4.216187,39.728272.102905.960327.013305,1.941284.013305,3.335693-9.87854,2.359497-19.697387,4.704651-30.480591,7.280212-5.811889-51.841491-11.584228-103.330749-17.435058-155.518982c10.035888-2.432373,19.97998-4.842468,30.871582-7.482208c1.640259,14.384003,3.248413,28.486298,4.881714,43.040924Z" fill="#776bff"/><path d="M872.739014,574.823853c-.643921,9.750671-1.257569,19.028991-1.911988,28.922851c15.702942-.924866,30.870179-1.818176,46.585877-2.743774-.557861,8.295959-.916626,16.076416-1.791443,23.798401-.1203,1.061767-2.750366,2.51062-4.3078,2.631774-12.289673.955933-24.601441,1.627564-36.905335,2.402344-1.621948.10199-3.238342.292664-5.177734.471863-.752686,11.861145-1.505005,23.461304-2.218811,35.063782-.419373,6.81781-.616944,13.655334-1.29242,20.44635-.142822,1.436523-1.83905,3.78949-2.978454,3.888306-10.104126.87622-20.243958,1.339782-31.219544,1.974121c3.144471-50.725892,6.271485-101.170716,9.428345-152.096863c29.950745-1.835144,59.491943-3.645203,89.928406-5.510132-.557434,8.358826-.964539,16.413086-1.815125,24.420288-.092468.870911-2.708679,2.007568-4.216613,2.110962-13.46222.922913-26.934205,1.727539-40.411927,2.393372-11.118164.549255-11.123352.444824-11.695434,11.826355Z" fill="#776bff"/><path d="M794.105896,585.796936c17.04248,6.924194,24.448059,20.118103,26.203186,37.316711c2.728272,26.73407-11.040832,52.909241-34.699646,65.171814-12.231628,6.339783-25.209228,7.350464-38.264038,3.107972-14.972595-4.865662-23.292908-15.780091-26.596924-30.946717-5.944824-27.288086,7.36023-57.470764,31.535339-70.861206c13.198243-7.310425,27.070557-8.608032,41.822083-3.788574m-11.215088,70.451111c5.452393-12.240357,6.672791-25.101929,4.44928-38.112976-1.942627-11.367981-13.452454-15.137024-22.398621-7.724976-2.150085,1.781433-4.302795,3.871216-5.638305,6.272888-7.695496,13.838929-9.188782,28.717957-6.036621,43.99701c1.47644,7.156921,7.180542,10.214294,14.370361,8.992859c7.543945-1.281617,11.665283-6.493409,15.253906-13.424805Z" fill="#776bff"/><path d="M628.965515,653.9021c-11.096008,17.155761-25.795288,27.796814-46.36969,29.760986-25.120422,2.398315-45.721985-15.082275-46.719543-40.217346-1.17395-29.57898,15.44226-56.157288,41.172973-65.718567c10.792603-4.010498,21.815674-4.464356,32.826905-1.124146c19.975097,6.059571,31.246093,24.517273,28.877197,46.768067-1.143311,10.739441-4.21759,20.836853-9.787842,30.531006m-53.267029-42.618225c-6.302429,12.658935-9.560424,25.837036-6.822387,40.036071.938659,4.867432,4.12738,7.40741,8.767273,8.395569c7.687133,1.637207,13.563415-1.806457,17.79779-7.562134c9.501099-12.914611,12.634216-27.774231,10.850952-43.47998-.91156-8.028687-7.326782-11.854614-15.288635-10.261292-7.101562,1.421082-11.530151,6.240052-15.304993,12.871766Z" fill="#776bff"/><path d="M663.626953,582.932495c4.497376-.074341,6.419129-2.342651,7.724487-6.07428c2.305237-6.590027,5.236268-12.958191,7.714356-19.491638c1.512329-3.987488,4.16333-5.704529,8.393188-5.578918c5.297364.157348,10.602906.037841,16.875855.037841-1.920166,11.198426-3.642761,21.244507-5.45221,31.797181c8.035157.53247,15.730713,1.04248,23.877198,1.582336-1.319641,7.441834-2.555725,14.412598-3.840577,21.658264-8.03125-.374206-15.640441-.728698-23.88916-1.113037-1.5802,8.726746-3.146667,17.165894-4.628418,25.619812-1.551635,8.851868-3.173278,17.695557-4.483581,26.584229-1.219971,8.276733,1.992187,11.035156,9.860229,8.472595c3.632202-1.183045,5.687744-.298157,6.970032,3.208496c1.371094,3.749573,2.773621,7.502808,4.45343,11.119263c1.247742,2.686401.745362,4.187683-1.933777,5.528198-10.983581,5.496033-22.433532,7.439758-34.404724,4.358154-12.511841-3.220825-19.685364-15.248352-17.393738-29.260254c2.847046-17.407959,6.032837-34.760437,9.06012-52.139038.254395-1.46051.415711-2.937134.696594-4.954345-2.669189-.22107-5.275757.084228-7.424438-.766663-2.009094-.795776-4.971802-2.792969-4.997925-4.304993-.076416-4.418701.887085-8.912903,1.96167-13.248962.234375-.94574,2.567566-1.581726,4.037231-1.96051c2.084473-.537293,4.264466-.703797,6.824158-1.073731Z" fill="#776bff"/><path d="M1075.647705,607.108276c1.068115,7.83191,1.121338,15.540345,3.489868,22.455689c3.952881,11.541748,16.480957,14.39032,26.109131,6.752868c2.336182-1.85321,4.312622-4.152893,6.535156-6.157897c3.700928-3.338746,7.30481-3.568726,11.257325-.558655c3.154541,2.402282,6.133178,5.035522,9.096435,7.488891-9.979736,21.193848-36.027222,33.411316-57.977295,27.437195-9.824829-2.674072-17.152099-8.792908-22.219482-17.437317-15.81897-26.985473-8.669434-64.74646,15.843872-84.012024c14.288696-11.229858,38.988647-15.658203,54.31543-2.993225.887084.733032,1.731567,1.5177,2.905395,2.550843-2.769287,4.624572-5.379028,9.230896-8.240356,13.675293-1.97815,3.072692-5.058838,4.799194-8.587403,3.372497-7.212524-2.916016-14.244629-3.815124-20.887817.973877-7.593994,5.474548-10.21106,13.656921-11.353638,22.484924-.149414,1.154236-.17688,2.324341-.286621,3.967041Z" fill="#776bff"/><path d="M971.591187,676.639038c.439147,4.061707-1.082337,5.276917-4.760254,5.530151-8.754029.602662-17.469544,1.763978-26.877076,2.772034c0-2.077576-.021789-3.684143.003235-5.289856.759766-48.784302,1.55774-97.568176,2.220032-146.35376.049683-3.663391.835449-5.228332,4.908264-5.473388c8.762207-.527344,17.483154-1.739929,26.947876-2.749573-.81543,50.668213-1.623657,100.888-2.442077,151.564392Z" fill="#776bff"/><path d="M764.541443,407.522614c-10.645081-19.202302-21.279602-38.410492-31.938965-57.604859-6.878296-12.385651-4.855347-18.134369,8.418274-23.309326-1.093384-2.06247-2.227539-4.080994-3.250732-6.154266-3.397217-6.883637-1.450257-13.672882,4.887512-17.187287c6.011718-3.333587,13.400573-1.110138,17.105224,5.444031c7.694153,13.612396,15.229309,27.314606,22.840515,40.973968.483704.868073,1.058167,1.685578,1.28003,2.036133c3.872192-1.573394,7.541076-4.155914,11.286072-4.271393c3.571899-.110107,7.223022,2.351319,10.50531,3.559327c3.428283-1.333466,7.191589-3.985932,10.88153-3.887543c3.469361.092499,8.492615,2.185791,10.023987,4.952881c10.36853,18.735534,20.695557,37.565643,29.500733,57.058624c3.395019,7.515839,2.732788,16.848755,4.024536,25.337769.530823,3.488891,1.473388,6.916809,1.961975,10.409759.22113,1.581085-.208313,3.253174-.342652,4.884003-1.636474-.623779-3.912414-.775055-4.788452-1.960724-2.545593-3.445282-3.964416-7.019348-3.204956-11.931397c1.922608-12.435058-1.770385-24.245086-7.260376-35.16687-7.539184-14.998474-15.977844-29.546325-24.099365-44.249481-1.887451-3.416901-4.990845-4.570465-8.469055-2.843078-3.786072,1.880279-4.491089,5.23999-2.599365,8.893371c2.292968,4.428162,4.901001,8.692047,7.264953,13.084992c1.120667,2.082397,3.429505,4.616363.229553,6.464965-3.540649,2.045411-4.465454-1.541809-5.690917-3.673126-3.730652-6.488586-7.298768-13.070465-10.960511-19.598938-2.772766-4.943573-6.352417-6.559112-9.94049-4.550018-3.523072,1.972717-3.963318,5.475311-1.235108,10.434784c2.966065,5.391998,6.191467,10.655548,8.855103,16.191009.791931,1.645905.869629,5.149018-.110352,5.841706-2.621033,1.85263-3.954407-.770996-5.124023-2.871155-12.868714-23.106018-25.753968-46.20285-38.638611-69.299988-.729065-1.306946-1.329773-2.729736-2.272095-3.864624-2.307556-2.779449-5.234985-3.631195-8.417297-1.639435-2.892823,1.810578-3.869751,4.489594-2.395935,7.750794.614196,1.359039,1.348999,2.666595,2.075866,3.971374c11.899659,21.361328,23.807373,42.718201,35.711182,64.07721.648193,1.162964,1.676697,2.291931,1.812439,3.516082.158081,1.426453-.472046,2.940308-.760071,4.416291-1.538513-.538819-3.233642-.837494-4.559753-1.702057-.862732-.5625-1.188172-1.948975-1.754761-2.966034-9.146912-16.42041-18.268372-32.855072-27.479248-49.239533-.948364-1.687042-2.216614-4.044891-3.714294-4.37445-2.287537-.503449-6.066468-.357422-7.097352,1.055664-1.39154,1.907715-1.881897,5.8302-.834594,7.926941c4.751953,9.513397,10.180969,18.688537,15.365051,27.986114c8.424255,15.10904,16.904297,30.187622,25.189453,45.372589.893067,1.63678.651428,3.892639.936218,5.861328-2.07312-.314361-4.50415-.037811-6.160156-1.040802-9.392273-5.688629-18.545654-11.770782-27.911377-17.504882-2.029175-1.24234-4.588745-2.22522-6.914551-2.248047-4.628357-.045471-7.246093,4.897094-5.074035,8.990387.5354,1.009002,1.287231,1.978576,2.14685,2.728698c13.296021,11.602906,26.293702,23.582337,40.062073,34.597565c9.666748,7.733765,20.694275,13.352478,33.637207,13.735108c2.445801.072296,7.890076,8.033447,7.075623,10.288909-.343933.952576-1.492859,2.19806-2.33252,2.242554-1.084106.057465-2.952392-.717926-3.222107-1.545654-1.633484-5.011536-6.066162-4.503723-9.846008-5.946381-8.93634-3.410705-18.574341-6.3461-26.032105-11.982879-15.37091-11.617707-29.660217-24.698334-44.064758-37.546753-5.613098-5.006714-5.846741-11.850434-1.795532-17.086884c3.877746-5.012451,10.937012-6.452698,17.109924-2.953766c6.219422,3.525299,12.155701,7.550324,18.792969,11.690277c1.120544.378693,1.664124.423462,2.207703.468262-.298462-.680633-.596924-1.361236-.895386-2.041839Z" fill="#d5d5d5"/><path d="M994.919922,583.013184c-.138611-12.53772-.139771-12.546021,11.746094-14.217408c6.232544-.876281,12.46997-1.717834,19.721435-2.714782c0,5.046814-.061279,9.65393.009888,14.258911.461304,29.804138.884399,59.609192,1.514648,89.409851.081421,3.850342-1.013916,5.112366-4.880615,5.481567-8.735474.833863-17.413513,2.269348-26.766357,3.549195-.451661-32.107972-.895935-63.688904-1.345093-95.767334Z" fill="#776bff"/><path d="M1013.304932,556.809692c-13.463074,3.063172-27.272889-10.501587-21.317017-24.987671c3.328918-8.096923,10.73468-12.612609,19.365051-11.843322c7.610352.678405,15.007386,7.177673,16.540589,14.532898c1.682129,8.069641-2.621094,16.633911-10.481385,20.740051-1.16748.609863-2.46167.97699-4.107238,1.558044Z" fill="#776bff"/><path d="M693.848022,273.483337c-9.427673,36.073182-9.938781,71.870362-1.303161,108.93927c2.748352-3.386383,4.640991-6.279815,7.11737-8.53128c1.226197-1.114868,3.526856-1.047913,5.341431-1.515656-.21405,1.744416.138733,3.879425-.745239,5.162232-3.016052,4.376831-6.509155,8.421875-9.737,12.656952-1.904785,2.499206-3.888366,2.766937-6.34497.79126-4.408448-3.54538-9.005005-6.869965-13.243348-10.604157-1.016662-.895752-.935546-3.037476-1.359313-4.60614c1.642517-.067719,3.549316-.696991,4.868041-.076508c2.182618,1.027008,3.986268,2.859253,6.989625,5.142975-.779175-4.555328-1.359742-8.002106-1.959107-11.445648-5.679504-32.630188-4.21814-64.953552,4.393494-96.917999.436584-1.620667,2.542419-2.791657,3.871093-4.171997.732056,1.604217,1.464112,3.208465,2.111084,5.176696Z" fill="#d5d5d5"/><path d="M844.887451,419.508575c-2.042358-6.633606-4.026062-12.847442-6.11737-19.398529c5.834472,2.091156,11.951721,22.97342,7.660156,28.977875-.494751-3.053192-.989441-6.106354-1.542786-9.579346Z" fill="#cdcdce"/><path d="M395.817993,559.664429c-5.933624,9.738098-14.739502,11.869384-24.822357,10.210388-5.872803-.966309-11.628052-2.646973-18.112549-4.16449c5.776062-15.66449,11.427796-30.991699,17.380493-47.135132c7.302063,2.075684,14.65326,3.508301,21.465454,6.270264c8.28241,3.358093,11.433289,11.654663,8.949738,21.93158-1.042267,4.313049-3.093933,8.382141-4.860779,12.88739Z" fill="#2a2633"/><path d="M476.348877,571.427185c-.154907.5271-.564758.767334-.974609,1.007568-.042176-.470703-.084351-.941345.022766-1.622253.331848-.030884.514373.148438.951843.614685Z" fill="#282633"/><path d="M782.728577,656.587158c-3.426392,6.592285-7.54773,11.804077-15.091675,13.085694-7.189819,1.221435-12.893921-1.835938-14.370361-8.992859-3.152161-15.279053-1.658875-30.158081,6.036621-43.99701c1.33551-2.401672,3.48822-4.491455,5.638305-6.272888c8.946167-7.412048,20.455994-3.643005,22.398621,7.724976c2.223511,13.011047,1.003113,25.872619-4.611511,38.452087Z" fill="#2a2633"/><path d="M575.871216,610.958618c3.602112-6.306457,8.030701-11.125427,15.132263-12.546509c7.961853-1.593322,14.377075,2.232605,15.288635,10.261292c1.783264,15.705749-1.349853,30.565369-10.850952,43.47998-4.234375,5.755677-10.110657,9.199341-17.79779,7.562134-4.639893-.988159-7.828614-3.528137-8.767273-8.395569-2.738037-14.199035.519958-27.377136,6.995117-40.361328Z" fill="#2a2633"/><path d="M764.23291,407.862305c.606995.340912.905457,1.021515,1.203919,1.702148-.543579-.0448-1.087159-.089569-1.865174-.395691-.038696-.496521.156983-.731659.661255-1.306457Z" fill="#282633"/></svg>
